# MagicaVoxel @ Ephtracy

# group
o 

# material
mtllib DOOR.mtl
usemtl palette

# normals
vn -1 0 0
vn 1 0 0
vn 0 0 1
vn 0 0 -1
vn 0 -1 0
vn 0 1 0

# texcoords
vt 0.0332031 0.5
vt 0.0878906 0.5
vt 0.0917969 0.5

# verts
v -1.7 0 -0.1
v -1.7 0 -0.4
v -1.7 0.5 -0.2
v -1.7 0.5 -0.3
v -1.7 0.9 -0.2
v -1.7 0.9 -0.3
v -1.7 3.1 -0.2
v -1.7 3.1 -0.3
v -1.7 3.5 -0.2
v -1.7 3.5 -0.3
v -1.7 4.2 -0.1
v -1.7 4.2 -0.4
v -0.1 1.6 -0.1
v -0.1 1.6 -0.2
v -0.1 1.7 -0.1
v -0.1 1.7 -0.2
v -0.1 3.9 -0.1
v -0.1 3.9 -0.2
v -0.1 4 -0.1
v -0.1 4 -0.2
v 0 1.5 -0.1
v 0 1.5 -0.2
v 0 1.6 -0.1
v 0 1.6 -0.2
v 0 3.8 -0.1
v 0 3.8 -0.2
v 0 3.9 -0.1
v 0 3.9 -0.2
v 0.0999999 1.4 -0.1
v 0.0999999 1.4 -0.2
v 0.0999999 1.5 -0.1
v 0.0999999 1.5 -0.2
v 0.0999999 1.7 0.1
v 0.0999999 1.7 0
v 0.0999999 1.8 0.1
v 0.0999999 1.8 0
v 0.0999999 3.7 -0.1
v 0.0999999 3.7 -0.2
v 0.0999999 3.8 -0.1
v 0.0999999 3.8 -0.2
v 0.2 0.1 -0.1
v 0.2 0.1 -0.2
v 0.2 0.2 -0.1
v 0.2 0.2 -0.2
v 0.2 1.3 -0.1
v 0.2 1.3 -0.2
v 0.2 1.4 -0.1
v 0.2 1.4 -0.2
v 0.2 1.6 0.1
v 0.2 1.6 0
v 0.2 1.7 0.1
v 0.2 1.7 0
v 0.2 1.7 -0.1
v 0.2 1.8 0.1
v 0.2 1.8 0
v 0.2 1.8 -0.1
v 0.2 1.9 0.1
v 0.2 1.9 0
v 0.2 1.9 -0.1
v 0.2 1.9 -0.2
v 0.2 2 -0.1
v 0.2 2 -0.2
v 0.2 3.6 -0.1
v 0.2 3.6 -0.2
v 0.2 3.7 -0.1
v 0.2 3.7 -0.2
v 0.3 0.2 -0.1
v 0.3 0.2 -0.2
v 0.3 0.2 -0.3
v 0.3 0.2 -0.4
v 0.3 1.3 -0.1
v 0.3 1.3 -0.2
v 0.3 1.7 -0.3
v 0.3 1.7 -0.4
v 0.3 2 -0.1
v 0.3 2 -0.2
v 0.3 2 -0.3
v 0.3 2 -0.4
v 0.3 3.6 -0.1
v 0.3 3.6 -0.2
v 0.3 4 -0.3
v 0.3 4 -0.4
v -1.5 0.2 -0.1
v -1.5 0.2 -0.2
v -1.5 0.2 -0.3
v -1.5 0.2 -0.4
v -1.5 1.3 -0.1
v -1.5 1.3 -0.2
v -1.5 1.7 -0.3
v -1.5 1.7 -0.4
v -1.5 2 -0.1
v -1.5 2 -0.2
v -1.5 2 -0.3
v -1.5 2 -0.4
v -1.5 3.6 -0.1
v -1.5 3.6 -0.2
v -1.5 4 -0.3
v -1.5 4 -0.4
v -1.4 0.1 -0.1
v -1.4 0.1 -0.2
v -1.4 0.2 -0.1
v -1.4 0.2 -0.2
v -1.4 1.3 -0.1
v -1.4 1.3 -0.2
v -1.4 1.4 -0.1
v -1.4 1.4 -0.2
v -1.4 1.9 -0.1
v -1.4 1.9 -0.2
v -1.4 2 -0.1
v -1.4 2 -0.2
v -1.4 3.6 -0.1
v -1.4 3.6 -0.2
v -1.4 3.7 -0.1
v -1.4 3.7 -0.2
v -1.3 1.4 -0.1
v -1.3 1.4 -0.2
v -1.3 1.5 -0.1
v -1.3 1.5 -0.2
v -1.3 3.7 -0.1
v -1.3 3.7 -0.2
v -1.3 3.8 -0.1
v -1.3 3.8 -0.2
v -1.2 1.5 -0.1
v -1.2 1.5 -0.2
v -1.2 1.6 -0.1
v -1.2 1.6 -0.2
v -1.2 3.8 -0.1
v -1.2 3.8 -0.2
v -1.2 3.9 -0.1
v -1.2 3.9 -0.2
v -1.1 1.6 -0.1
v -1.1 1.6 -0.2
v -1.1 1.7 -0.1
v -1.1 1.7 -0.2
v -1.1 3.9 -0.1
v -1.1 3.9 -0.2
v -1.1 4 -0.1
v -1.1 4 -0.2
v 0.3 1.6 0.1
v 0.3 1.6 0
v 0.3 1.7 0.1
v 0.3 1.7 0
v 0.3 1.7 -0.1
v 0.3 1.8 0.1
v 0.3 1.8 0
v 0.3 1.8 -0.1
v 0.3 1.9 0.1
v 0.3 1.9 0
v 0.4 1.7 0.1
v 0.4 1.7 0
v 0.4 1.8 0.1
v 0.4 1.8 0
v 0.5 0 -0.1
v 0.5 0 -0.4
v 0.5 0.1 -0.2
v 0.5 0.1 -0.3
v 0.5 4.1 -0.2
v 0.5 4.1 -0.3
v 0.5 4.2 -0.1
v 0.5 4.2 -0.4
v 0.0999999 1.7 0.1
v 0.0999999 1.8 0.1
v 0.2 1.6 0.1
v 0.2 1.7 0.1
v 0.2 1.8 0.1
v 0.2 1.9 0.1
v 0.3 1.6 0.1
v 0.3 1.7 0.1
v 0.3 1.8 0.1
v 0.3 1.9 0.1
v 0.4 1.7 0.1
v 0.4 1.8 0.1
v -1.7 0 -0.1
v -1.7 4.2 -0.1
v -1.5 0.2 -0.1
v -1.5 1.3 -0.1
v -1.5 2 -0.1
v -1.5 3.6 -0.1
v -1.4 0.1 -0.1
v -1.4 0.2 -0.1
v -1.4 1.3 -0.1
v -1.4 1.4 -0.1
v -1.4 1.9 -0.1
v -1.4 2 -0.1
v -1.4 3.6 -0.1
v -1.4 3.7 -0.1
v -1.3 1.4 -0.1
v -1.3 1.5 -0.1
v -1.3 3.7 -0.1
v -1.3 3.8 -0.1
v -1.2 1.5 -0.1
v -1.2 1.6 -0.1
v -1.2 3.8 -0.1
v -1.2 3.9 -0.1
v -1.1 1.6 -0.1
v -1.1 1.7 -0.1
v -1.1 3.9 -0.1
v -1.1 4 -0.1
v -0.1 1.6 -0.1
v -0.1 1.7 -0.1
v -0.1 3.9 -0.1
v -0.1 4 -0.1
v 0 1.5 -0.1
v 0 1.6 -0.1
v 0 3.8 -0.1
v 0 3.9 -0.1
v 0.0999999 1.4 -0.1
v 0.0999999 1.5 -0.1
v 0.0999999 3.7 -0.1
v 0.0999999 3.8 -0.1
v 0.2 0.1 -0.1
v 0.2 0.2 -0.1
v 0.2 1.3 -0.1
v 0.2 1.4 -0.1
v 0.2 1.7 -0.1
v 0.2 1.8 -0.1
v 0.2 1.9 -0.1
v 0.2 2 -0.1
v 0.2 3.6 -0.1
v 0.2 3.7 -0.1
v 0.3 0.2 -0.1
v 0.3 1.3 -0.1
v 0.3 1.7 -0.1
v 0.3 1.8 -0.1
v 0.3 2 -0.1
v 0.3 3.6 -0.1
v 0.5 0 -0.1
v 0.5 4.2 -0.1
v -1.5 0.2 -0.2
v -1.5 1.3 -0.2
v -1.5 2 -0.2
v -1.5 3.6 -0.2
v -1.4 0.1 -0.2
v -1.4 0.2 -0.2
v -1.4 1.3 -0.2
v -1.4 1.4 -0.2
v -1.4 1.9 -0.2
v -1.4 2 -0.2
v -1.4 3.6 -0.2
v -1.4 3.7 -0.2
v -1.3 1.4 -0.2
v -1.3 1.5 -0.2
v -1.3 3.7 -0.2
v -1.3 3.8 -0.2
v -1.2 1.5 -0.2
v -1.2 1.6 -0.2
v -1.2 3.8 -0.2
v -1.2 3.9 -0.2
v -1.1 1.6 -0.2
v -1.1 1.7 -0.2
v -1.1 3.9 -0.2
v -1.1 4 -0.2
v -0.1 1.6 -0.2
v -0.1 1.7 -0.2
v -0.1 3.9 -0.2
v -0.1 4 -0.2
v 0 1.5 -0.2
v 0 1.6 -0.2
v 0 3.8 -0.2
v 0 3.9 -0.2
v 0.0999999 1.4 -0.2
v 0.0999999 1.5 -0.2
v 0.0999999 3.7 -0.2
v 0.0999999 3.8 -0.2
v 0.2 0.1 -0.2
v 0.2 0.2 -0.2
v 0.2 1.3 -0.2
v 0.2 1.4 -0.2
v 0.2 1.9 -0.2
v 0.2 2 -0.2
v 0.2 3.6 -0.2
v 0.2 3.7 -0.2
v 0.3 0.2 -0.2
v 0.3 1.3 -0.2
v 0.3 2 -0.2
v 0.3 3.6 -0.2
v 0.0999999 1.7 0
v 0.0999999 1.8 0
v 0.2 1.6 0
v 0.2 1.7 0
v 0.2 1.8 0
v 0.2 1.9 0
v 0.3 1.6 0
v 0.3 1.7 0
v 0.3 1.8 0
v 0.3 1.9 0
v 0.4 1.7 0
v 0.4 1.8 0
v -1.5 0.2 -0.3
v -1.5 1.7 -0.3
v -1.5 2 -0.3
v -1.5 4 -0.3
v 0.3 0.2 -0.3
v 0.3 1.7 -0.3
v 0.3 2 -0.3
v 0.3 4 -0.3
v -1.7 0 -0.4
v -1.7 4.2 -0.4
v -1.5 0.2 -0.4
v -1.5 1.7 -0.4
v -1.5 2 -0.4
v -1.5 4 -0.4
v 0.3 0.2 -0.4
v 0.3 1.7 -0.4
v 0.3 2 -0.4
v 0.3 4 -0.4
v 0.5 0 -0.4
v 0.5 4.2 -0.4
v -1.7 0 -0.1
v 0.5 0 -0.1
v -1.7 0 -0.4
v 0.5 0 -0.4
v -1.5 1.3 -0.1
v -1.4 1.3 -0.1
v 0.2 1.3 -0.1
v 0.3 1.3 -0.1
v -1.5 1.3 -0.2
v -1.4 1.3 -0.2
v 0.2 1.3 -0.2
v 0.3 1.3 -0.2
v -1.4 1.4 -0.1
v -1.3 1.4 -0.1
v 0.0999999 1.4 -0.1
v 0.2 1.4 -0.1
v -1.4 1.4 -0.2
v -1.3 1.4 -0.2
v 0.0999999 1.4 -0.2
v 0.2 1.4 -0.2
v -1.3 1.5 -0.1
v -1.2 1.5 -0.1
v 0 1.5 -0.1
v 0.0999999 1.5 -0.1
v -1.3 1.5 -0.2
v -1.2 1.5 -0.2
v 0 1.5 -0.2
v 0.0999999 1.5 -0.2
v 0.2 1.6 0.1
v 0.3 1.6 0.1
v 0.2 1.6 0
v 0.3 1.6 0
v -1.2 1.6 -0.1
v -1.1 1.6 -0.1
v -0.1 1.6 -0.1
v 0 1.6 -0.1
v -1.2 1.6 -0.2
v -1.1 1.6 -0.2
v -0.1 1.6 -0.2
v 0 1.6 -0.2
v 0.0999999 1.7 0.1
v 0.2 1.7 0.1
v 0.3 1.7 0.1
v 0.4 1.7 0.1
v 0.0999999 1.7 0
v 0.2 1.7 0
v 0.3 1.7 0
v 0.4 1.7 0
v -1.1 1.7 -0.1
v -0.1 1.7 -0.1
v 0.2 1.7 -0.1
v 0.3 1.7 -0.1
v -1.1 1.7 -0.2
v -0.1 1.7 -0.2
v -1.5 1.7 -0.3
v 0.3 1.7 -0.3
v -1.5 1.7 -0.4
v 0.3 1.7 -0.4
v -1.5 3.6 -0.1
v -1.4 3.6 -0.1
v 0.2 3.6 -0.1
v 0.3 3.6 -0.1
v -1.5 3.6 -0.2
v -1.4 3.6 -0.2
v 0.2 3.6 -0.2
v 0.3 3.6 -0.2
v -1.4 3.7 -0.1
v -1.3 3.7 -0.1
v 0.0999999 3.7 -0.1
v 0.2 3.7 -0.1
v -1.4 3.7 -0.2
v -1.3 3.7 -0.2
v 0.0999999 3.7 -0.2
v 0.2 3.7 -0.2
v -1.3 3.8 -0.1
v -1.2 3.8 -0.1
v 0 3.8 -0.1
v 0.0999999 3.8 -0.1
v -1.3 3.8 -0.2
v -1.2 3.8 -0.2
v 0 3.8 -0.2
v 0.0999999 3.8 -0.2
v -1.2 3.9 -0.1
v -1.1 3.9 -0.1
v -0.1 3.9 -0.1
v 0 3.9 -0.1
v -1.2 3.9 -0.2
v -1.1 3.9 -0.2
v -0.1 3.9 -0.2
v 0 3.9 -0.2
v -1.1 4 -0.1
v -0.1 4 -0.1
v -1.1 4 -0.2
v -0.1 4 -0.2
v -1.5 4 -0.3
v 0.3 4 -0.3
v -1.5 4 -0.4
v 0.3 4 -0.4
v -1.4 0.1 -0.1
v 0.2 0.1 -0.1
v -1.4 0.1 -0.2
v 0.2 0.1 -0.2
v -1.5 0.2 -0.1
v -1.4 0.2 -0.1
v 0.2 0.2 -0.1
v 0.3 0.2 -0.1
v -1.5 0.2 -0.2
v -1.4 0.2 -0.2
v 0.2 0.2 -0.2
v 0.3 0.2 -0.2
v -1.5 0.2 -0.3
v 0.3 0.2 -0.3
v -1.5 0.2 -0.4
v 0.3 0.2 -0.4
v 0.0999999 1.8 0.1
v 0.2 1.8 0.1
v 0.3 1.8 0.1
v 0.4 1.8 0.1
v 0.0999999 1.8 0
v 0.2 1.8 0
v 0.3 1.8 0
v 0.4 1.8 0
v 0.2 1.8 -0.1
v 0.3 1.8 -0.1
v 0.2 1.9 0.1
v 0.3 1.9 0.1
v 0.2 1.9 0
v 0.3 1.9 0
v -1.4 1.9 -0.1
v 0.2 1.9 -0.1
v -1.4 1.9 -0.2
v 0.2 1.9 -0.2
v -1.5 2 -0.1
v -1.4 2 -0.1
v 0.2 2 -0.1
v 0.3 2 -0.1
v -1.5 2 -0.2
v -1.4 2 -0.2
v 0.2 2 -0.2
v 0.3 2 -0.2
v -1.5 2 -0.3
v 0.3 2 -0.3
v -1.5 2 -0.4
v 0.3 2 -0.4
v -1.7 4.2 -0.1
v 0.5 4.2 -0.1
v -1.7 4.2 -0.4
v 0.5 4.2 -0.4

# faces
f 3/3/1 2/3/1 1/3/1
f 4/3/1 2/3/1 3/3/1
f 5/3/1 3/3/1 1/3/1
f 5/2/1 4/2/1 3/2/1
f 6/3/1 2/3/1 4/3/1
f 6/2/1 4/2/1 5/2/1
f 7/3/1 5/3/1 1/3/1
f 7/3/1 6/3/1 5/3/1
f 8/3/1 2/3/1 6/3/1
f 8/3/1 6/3/1 7/3/1
f 9/3/1 7/3/1 1/3/1
f 9/2/1 8/2/1 7/2/1
f 10/3/1 2/3/1 8/3/1
f 10/2/1 8/2/1 9/2/1
f 11/3/1 9/3/1 1/3/1
f 11/3/1 10/3/1 9/3/1
f 12/3/1 2/3/1 10/3/1
f 12/3/1 10/3/1 11/3/1
f 15/3/1 14/3/1 13/3/1
f 16/3/1 14/3/1 15/3/1
f 19/3/1 18/3/1 17/3/1
f 20/3/1 18/3/1 19/3/1
f 23/3/1 22/3/1 21/3/1
f 24/3/1 22/3/1 23/3/1
f 27/3/1 26/3/1 25/3/1
f 28/3/1 26/3/1 27/3/1
f 31/3/1 30/3/1 29/3/1
f 32/3/1 30/3/1 31/3/1
f 35/1/1 34/1/1 33/1/1
f 36/1/1 34/1/1 35/1/1
f 39/3/1 38/3/1 37/3/1
f 40/3/1 38/3/1 39/3/1
f 43/3/1 42/3/1 41/3/1
f 44/3/1 42/3/1 43/3/1
f 47/3/1 46/3/1 45/3/1
f 48/3/1 46/3/1 47/3/1
f 51/1/1 50/1/1 49/1/1
f 52/1/1 50/1/1 51/1/1
f 55/1/1 53/1/1 52/1/1
f 56/1/1 53/1/1 55/1/1
f 57/1/1 55/1/1 54/1/1
f 58/1/1 55/1/1 57/1/1
f 61/3/1 60/3/1 59/3/1
f 62/3/1 60/3/1 61/3/1
f 65/3/1 64/3/1 63/3/1
f 66/3/1 64/3/1 65/3/1
f 71/3/1 68/3/1 67/3/1
f 72/3/1 68/3/1 71/3/1
f 73/3/1 70/3/1 69/3/1
f 74/3/1 70/3/1 73/3/1
f 79/3/1 76/3/1 75/3/1
f 80/3/1 76/3/1 79/3/1
f 81/3/1 78/3/1 77/3/1
f 82/3/1 78/3/1 81/3/1
f 83/3/2 84/3/2 87/3/2
f 87/3/2 84/3/2 88/3/2
f 85/3/2 86/3/2 89/3/2
f 89/3/2 86/3/2 90/3/2
f 91/3/2 92/3/2 95/3/2
f 95/3/2 92/3/2 96/3/2
f 93/3/2 94/3/2 97/3/2
f 97/3/2 94/3/2 98/3/2
f 99/3/2 100/3/2 101/3/2
f 101/3/2 100/3/2 102/3/2
f 103/3/2 104/3/2 105/3/2
f 105/3/2 104/3/2 106/3/2
f 107/3/2 108/3/2 109/3/2
f 109/3/2 108/3/2 110/3/2
f 111/3/2 112/3/2 113/3/2
f 113/3/2 112/3/2 114/3/2
f 115/3/2 116/3/2 117/3/2
f 117/3/2 116/3/2 118/3/2
f 119/3/2 120/3/2 121/3/2
f 121/3/2 120/3/2 122/3/2
f 123/3/2 124/3/2 125/3/2
f 125/3/2 124/3/2 126/3/2
f 127/3/2 128/3/2 129/3/2
f 129/3/2 128/3/2 130/3/2
f 131/3/2 132/3/2 133/3/2
f 133/3/2 132/3/2 134/3/2
f 135/3/2 136/3/2 137/3/2
f 137/3/2 136/3/2 138/3/2
f 139/1/2 140/1/2 141/1/2
f 141/1/2 140/1/2 142/1/2
f 142/1/2 143/1/2 145/1/2
f 145/1/2 143/1/2 146/1/2
f 144/1/2 145/1/2 147/1/2
f 147/1/2 145/1/2 148/1/2
f 149/1/2 150/1/2 151/1/2
f 151/1/2 150/1/2 152/1/2
f 153/3/2 154/3/2 155/3/2
f 155/3/2 154/3/2 156/3/2
f 153/3/2 155/3/2 157/3/2
f 155/2/2 156/2/2 157/2/2
f 156/3/2 154/3/2 158/3/2
f 157/2/2 156/2/2 158/2/2
f 153/3/2 157/3/2 159/3/2
f 157/3/2 158/3/2 159/3/2
f 158/3/2 154/3/2 160/3/2
f 159/3/2 158/3/2 160/3/2
f 164/1/3 162/1/3 161/1/3
f 165/1/3 162/1/3 164/1/3
f 167/1/3 164/1/3 163/1/3
f 167/1/3 166/1/3 165/1/3
f 167/1/3 165/1/3 164/1/3
f 168/1/3 166/1/3 167/1/3
f 169/1/3 166/1/3 168/1/3
f 170/1/3 166/1/3 169/1/3
f 171/1/3 169/1/3 168/1/3
f 172/1/3 169/1/3 171/1/3
f 175/3/3 174/3/3 173/3/3
f 176/3/3 174/3/3 175/3/3
f 177/3/3 174/3/3 176/3/3
f 178/3/3 174/3/3 177/3/3
f 179/3/3 175/3/3 173/3/3
f 180/3/3 175/3/3 179/3/3
f 181/3/3 177/3/3 176/3/3
f 182/3/3 177/3/3 181/3/3
f 183/3/3 177/3/3 182/3/3
f 184/3/3 177/3/3 183/3/3
f 185/3/3 174/3/3 178/3/3
f 186/3/3 174/3/3 185/3/3
f 187/3/3 183/3/3 182/3/3
f 188/3/3 183/3/3 187/3/3
f 189/3/3 174/3/3 186/3/3
f 190/3/3 174/3/3 189/3/3
f 191/3/3 183/3/3 188/3/3
f 192/3/3 183/3/3 191/3/3
f 193/3/3 174/3/3 190/3/3
f 194/3/3 174/3/3 193/3/3
f 195/3/3 183/3/3 192/3/3
f 196/3/3 183/3/3 195/3/3
f 197/3/3 174/3/3 194/3/3
f 198/3/3 174/3/3 197/3/3
f 200/3/3 183/3/3 196/3/3
f 202/3/3 174/3/3 198/3/3
f 204/3/3 200/3/3 199/3/3
f 206/3/3 202/3/3 201/3/3
f 208/3/3 204/3/3 203/3/3
f 210/3/3 206/3/3 205/3/3
f 211/3/3 179/3/3 173/3/3
f 214/3/3 208/3/3 207/3/3
f 215/3/3 183/3/3 200/3/3
f 215/3/3 200/3/3 204/3/3
f 215/3/3 208/3/3 214/3/3
f 215/3/3 204/3/3 208/3/3
f 216/3/3 183/3/3 215/3/3
f 217/3/3 183/3/3 216/3/3
f 220/3/3 210/3/3 209/3/3
f 221/3/3 212/3/3 211/3/3
f 222/3/3 214/3/3 213/3/3
f 222/3/3 215/3/3 214/3/3
f 223/3/3 215/3/3 222/3/3
f 224/3/3 218/3/3 217/3/3
f 224/3/3 217/3/3 216/3/3
f 225/3/3 218/3/3 224/3/3
f 226/3/3 220/3/3 219/3/3
f 227/3/3 223/3/3 222/3/3
f 227/3/3 226/3/3 225/3/3
f 227/3/3 225/3/3 224/3/3
f 227/3/3 221/3/3 211/3/3
f 227/3/3 224/3/3 223/3/3
f 227/3/3 211/3/3 173/3/3
f 227/3/3 222/3/3 221/3/3
f 228/3/3 220/3/3 226/3/3
f 228/3/3 226/3/3 227/3/3
f 228/3/3 174/3/3 202/3/3
f 228/3/3 210/3/3 220/3/3
f 228/3/3 202/3/3 206/3/3
f 228/3/3 206/3/3 210/3/3
f 234/2/3 230/2/3 229/2/3
f 235/2/3 230/2/3 234/2/3
f 238/2/3 232/2/3 231/2/3
f 239/2/3 232/2/3 238/2/3
f 241/2/3 236/2/3 235/2/3
f 241/2/3 234/2/3 233/2/3
f 241/2/3 235/2/3 234/2/3
f 243/2/3 240/2/3 239/2/3
f 243/2/3 239/2/3 238/2/3
f 243/2/3 238/2/3 237/2/3
f 245/2/3 242/2/3 241/2/3
f 247/2/3 244/2/3 243/2/3
f 249/2/3 246/2/3 245/2/3
f 251/2/3 248/2/3 247/2/3
f 253/2/3 250/2/3 249/2/3
f 253/2/3 249/2/3 245/2/3
f 254/2/3 250/2/3 253/2/3
f 255/2/3 252/2/3 251/2/3
f 255/2/3 251/2/3 247/2/3
f 256/2/3 252/2/3 255/2/3
f 257/2/3 245/2/3 241/2/3
f 257/2/3 253/2/3 245/2/3
f 258/2/3 253/2/3 257/2/3
f 259/2/3 255/2/3 247/2/3
f 259/2/3 247/2/3 243/2/3
f 260/2/3 255/2/3 259/2/3
f 261/2/3 241/2/3 233/2/3
f 261/2/3 257/2/3 241/2/3
f 262/2/3 257/2/3 261/2/3
f 263/2/3 243/2/3 237/2/3
f 263/2/3 259/2/3 243/2/3
f 264/2/3 259/2/3 263/2/3
f 265/2/3 261/2/3 233/2/3
f 266/2/3 261/2/3 265/2/3
f 267/2/3 261/2/3 266/2/3
f 268/2/3 261/2/3 267/2/3
f 269/2/3 263/2/3 237/2/3
f 270/2/3 263/2/3 269/2/3
f 271/2/3 263/2/3 270/2/3
f 272/2/3 263/2/3 271/2/3
f 273/2/3 267/2/3 266/2/3
f 274/2/3 267/2/3 273/2/3
f 275/2/3 271/2/3 270/2/3
f 276/2/3 271/2/3 275/2/3
f 277/1/4 278/1/4 280/1/4
f 280/1/4 278/1/4 281/1/4
f 279/1/4 280/1/4 283/1/4
f 283/1/4 280/1/4 284/1/4
f 281/1/4 282/1/4 285/1/4
f 285/1/4 282/1/4 286/1/4
f 284/1/4 285/1/4 287/1/4
f 287/1/4 285/1/4 288/1/4
f 289/2/4 290/2/4 293/2/4
f 293/2/4 290/2/4 294/2/4
f 291/2/4 292/2/4 295/2/4
f 295/2/4 292/2/4 296/2/4
f 297/3/4 298/3/4 299/3/4
f 299/3/4 298/3/4 300/3/4
f 300/3/4 298/3/4 301/3/4
f 301/3/4 298/3/4 302/3/4
f 297/3/4 299/3/4 303/3/4
f 300/3/4 301/3/4 304/3/4
f 304/3/4 301/3/4 305/3/4
f 302/3/4 298/3/4 306/3/4
f 304/3/4 305/3/4 307/3/4
f 305/3/4 306/3/4 307/3/4
f 297/3/4 303/3/4 307/3/4
f 303/3/4 304/3/4 307/3/4
f 306/3/4 298/3/4 308/3/4
f 307/3/4 306/3/4 308/3/4
f 311/3/5 310/3/5 309/3/5
f 312/3/5 310/3/5 311/3/5
f 317/3/5 314/3/5 313/3/5
f 318/3/5 314/3/5 317/3/5
f 319/3/5 316/3/5 315/3/5
f 320/3/5 316/3/5 319/3/5
f 325/3/5 322/3/5 321/3/5
f 326/3/5 322/3/5 325/3/5
f 327/3/5 324/3/5 323/3/5
f 328/3/5 324/3/5 327/3/5
f 333/3/5 330/3/5 329/3/5
f 334/3/5 330/3/5 333/3/5
f 335/3/5 332/3/5 331/3/5
f 336/3/5 332/3/5 335/3/5
f 339/1/5 338/1/5 337/1/5
f 340/1/5 338/1/5 339/1/5
f 345/3/5 342/3/5 341/3/5
f 346/3/5 342/3/5 345/3/5
f 347/3/5 344/3/5 343/3/5
f 348/3/5 344/3/5 347/3/5
f 353/1/5 350/1/5 349/1/5
f 354/1/5 350/1/5 353/1/5
f 355/1/5 352/1/5 351/1/5
f 356/1/5 352/1/5 355/1/5
f 359/1/5 355/1/5 354/1/5
f 360/1/5 355/1/5 359/1/5
f 361/3/5 358/3/5 357/3/5
f 362/3/5 358/3/5 361/3/5
f 365/3/5 364/3/5 363/3/5
f 366/3/5 364/3/5 365/3/5
f 371/3/5 368/3/5 367/3/5
f 372/3/5 368/3/5 371/3/5
f 373/3/5 370/3/5 369/3/5
f 374/3/5 370/3/5 373/3/5
f 379/3/5 376/3/5 375/3/5
f 380/3/5 376/3/5 379/3/5
f 381/3/5 378/3/5 377/3/5
f 382/3/5 378/3/5 381/3/5
f 387/3/5 384/3/5 383/3/5
f 388/3/5 384/3/5 387/3/5
f 389/3/5 386/3/5 385/3/5
f 390/3/5 386/3/5 389/3/5
f 395/3/5 392/3/5 391/3/5
f 396/3/5 392/3/5 395/3/5
f 397/3/5 394/3/5 393/3/5
f 398/3/5 394/3/5 397/3/5
f 401/3/5 400/3/5 399/3/5
f 402/3/5 400/3/5 401/3/5
f 405/3/5 404/3/5 403/3/5
f 406/3/5 404/3/5 405/3/5
f 407/3/6 408/3/6 409/3/6
f 409/3/6 408/3/6 410/3/6
f 411/3/6 412/3/6 415/3/6
f 415/3/6 412/3/6 416/3/6
f 413/3/6 414/3/6 417/3/6
f 417/3/6 414/3/6 418/3/6
f 419/3/6 420/3/6 421/3/6
f 421/3/6 420/3/6 422/3/6
f 423/1/6 424/1/6 427/1/6
f 427/1/6 424/1/6 428/1/6
f 425/1/6 426/1/6 429/1/6
f 429/1/6 426/1/6 430/1/6
f 428/1/6 429/1/6 431/1/6
f 431/1/6 429/1/6 432/1/6
f 433/1/6 434/1/6 435/1/6
f 435/1/6 434/1/6 436/1/6
f 437/3/6 438/3/6 439/3/6
f 439/3/6 438/3/6 440/3/6
f 441/3/6 442/3/6 445/3/6
f 445/3/6 442/3/6 446/3/6
f 443/3/6 444/3/6 447/3/6
f 447/3/6 444/3/6 448/3/6
f 449/3/6 450/3/6 451/3/6
f 451/3/6 450/3/6 452/3/6
f 453/3/6 454/3/6 455/3/6
f 455/3/6 454/3/6 456/3/6
