# MagicaVoxel @ Ephtracy

# group
o 

# material
mtllib flashlight.mtl
usemtl palette

# normals
vn -1 0 0
vn 1 0 0
vn 0 0 1
vn 0 0 -1
vn 0 -1 0
vn 0 1 0

# texcoords
vt 0.0878906 0.5
vt 0.279297 0.5
vt 0.966797 0.5
vt 0.986328 0.5

# verts
v -1.5 4.7 -1
v -1.5 4.7 -1.6
v -1.5 4.8 -1.1
v -1.5 4.8 -1.5
v -1.5 5.5 -1.1
v -1.5 5.5 -1.5
v -1.5 5.6 -1
v -1.5 5.6 -1.6
v -1.4 4.6 -1.1
v -1.4 4.6 -1.5
v -1.4 4.7 -1.1
v -1.4 4.7 -1.5
v -1.4 5.6 -1.1
v -1.4 5.6 -1.5
v -1.4 5.7 -1.1
v -1.4 5.7 -1.5
v -1.3 0 -2.4
v -1.3 0 -2.6
v -1.3 4.8 -1.2
v -1.3 4.8 -1.4
v -1.3 5.2 -1.2
v -1.3 5.2 -1.4
v -1.3 5.3 -1.2
v -1.3 5.3 -1.4
v -1.3 5.7 -1.2
v -1.3 5.7 -1.4
v -1.3 6 -1
v -1.3 6 -1.2
v -1.3 6 -1.4
v -1.3 6 -2.4
v -1.3 6.2 -1
v -1.3 6.2 -2.4
v -1.3 6.4 -2.4
v -1.3 6.4 -2.6
v -1 4.8 -1
v -1 4.8 -1.1
v -1 4.8 -1.5
v -1 4.8 -1.6
v -1 5.5 -1
v -1 5.5 -1.1
v -1 5.5 -1.5
v -1 5.5 -1.6
v -1.4 4.8 -1
v -1.4 4.8 -1.1
v -1.4 4.8 -1.5
v -1.4 4.8 -1.6
v -1.4 5.5 -1
v -1.4 5.5 -1.1
v -1.4 5.5 -1.5
v -1.4 5.5 -1.6
v -1.1 0 -2.4
v -1.1 0 -2.6
v -1.1 4.8 -1.2
v -1.1 4.8 -1.4
v -1.1 5.2 -1.2
v -1.1 5.2 -1.4
v -1.1 5.3 -1.2
v -1.1 5.3 -1.4
v -1.1 5.7 -1.2
v -1.1 5.7 -1.4
v -1.1 6 -1
v -1.1 6 -1.2
v -1.1 6 -1.4
v -1.1 6 -2.4
v -1.1 6.2 -1
v -1.1 6.2 -2.4
v -1.1 6.4 -2.4
v -1.1 6.4 -2.6
v -1 4.6 -1.1
v -1 4.6 -1.5
v -1 4.7 -1.1
v -1 4.7 -1.5
v -1 5.6 -1.1
v -1 5.6 -1.5
v -1 5.7 -1.1
v -1 5.7 -1.5
v -0.9 4.7 -1
v -0.9 4.7 -1.6
v -0.9 4.8 -1.1
v -0.9 4.8 -1.5
v -0.9 5.5 -1.1
v -0.9 5.5 -1.5
v -0.9 5.6 -1
v -0.9 5.6 -1.6
v -1.5 4.7 -1
v -1.5 5.6 -1
v -1.4 4.8 -1
v -1.4 5.5 -1
v -1.3 6 -1
v -1.3 6.2 -1
v -1.1 6 -1
v -1.1 6.2 -1
v -1 4.8 -1
v -1 5.5 -1
v -0.9 4.7 -1
v -0.9 5.6 -1
v -1.4 4.6 -1.1
v -1.4 4.7 -1.1
v -1.4 5.6 -1.1
v -1.4 5.7 -1.1
v -1 4.6 -1.1
v -1 4.7 -1.1
v -1 5.6 -1.1
v -1 5.7 -1.1
v -1.3 4.8 -1.2
v -1.3 5.2 -1.2
v -1.3 5.3 -1.2
v -1.3 5.7 -1.2
v -1.3 6 -1.2
v -1.1 4.8 -1.2
v -1.1 5.2 -1.2
v -1.1 5.3 -1.2
v -1.1 5.7 -1.2
v -1.1 6 -1.2
v -1.5 4.8 -1.5
v -1.5 5.5 -1.5
v -1.4 4.8 -1.5
v -1.4 5.5 -1.5
v -1 4.8 -1.5
v -1 5.5 -1.5
v -0.9 4.8 -1.5
v -0.9 5.5 -1.5
v -1.3 0 -2.4
v -1.3 6 -2.4
v -1.3 6.2 -2.4
v -1.3 6.4 -2.4
v -1.1 0 -2.4
v -1.1 6 -2.4
v -1.1 6.2 -2.4
v -1.1 6.4 -2.4
v -1.5 4.8 -1.1
v -1.5 5.5 -1.1
v -1.4 4.8 -1.1
v -1.4 5.5 -1.1
v -1 4.8 -1.1
v -1 5.5 -1.1
v -0.9 4.8 -1.1
v -0.9 5.5 -1.1
v -1.3 4.8 -1.4
v -1.3 5.2 -1.4
v -1.3 5.3 -1.4
v -1.3 5.7 -1.4
v -1.3 6 -1.4
v -1.1 4.8 -1.4
v -1.1 5.2 -1.4
v -1.1 5.3 -1.4
v -1.1 5.7 -1.4
v -1.1 6 -1.4
v -1.4 4.6 -1.5
v -1.4 4.7 -1.5
v -1.4 5.6 -1.5
v -1.4 5.7 -1.5
v -1 4.6 -1.5
v -1 4.7 -1.5
v -1 5.6 -1.5
v -1 5.7 -1.5
v -1.5 4.7 -1.6
v -1.5 5.6 -1.6
v -1.4 4.8 -1.6
v -1.4 5.5 -1.6
v -1 4.8 -1.6
v -1 5.5 -1.6
v -0.9 4.7 -1.6
v -0.9 5.6 -1.6
v -1.3 0 -2.6
v -1.3 6.4 -2.6
v -1.1 0 -2.6
v -1.1 6.4 -2.6
v -1.3 0 -2.4
v -1.1 0 -2.4
v -1.3 0 -2.6
v -1.1 0 -2.6
v -1.4 4.6 -1.1
v -1 4.6 -1.1
v -1.4 4.6 -1.5
v -1 4.6 -1.5
v -1.5 4.7 -1
v -0.9 4.7 -1
v -1.4 4.7 -1.1
v -1 4.7 -1.1
v -1.4 4.7 -1.5
v -1 4.7 -1.5
v -1.5 4.7 -1.6
v -0.9 4.7 -1.6
v -1.4 5.5 -1
v -1 5.5 -1
v -1.5 5.5 -1.1
v -1.4 5.5 -1.1
v -1 5.5 -1.1
v -0.9 5.5 -1.1
v -1.5 5.5 -1.5
v -1.4 5.5 -1.5
v -1 5.5 -1.5
v -0.9 5.5 -1.5
v -1.4 5.5 -1.6
v -1 5.5 -1.6
v -1.3 6 -1
v -1.1 6 -1
v -1.3 6 -1.2
v -1.1 6 -1.2
v -1.3 6 -1.4
v -1.1 6 -1.4
v -1.3 6 -2.4
v -1.1 6 -2.4
v -1.4 4.8 -1
v -1 4.8 -1
v -1.5 4.8 -1.1
v -1.4 4.8 -1.1
v -1 4.8 -1.1
v -0.9 4.8 -1.1
v -1.3 4.8 -1.2
v -1.1 4.8 -1.2
v -1.3 4.8 -1.4
v -1.1 4.8 -1.4
v -1.5 4.8 -1.5
v -1.4 4.8 -1.5
v -1 4.8 -1.5
v -0.9 4.8 -1.5
v -1.4 4.8 -1.6
v -1 4.8 -1.6
v -1.3 5.3 -1.2
v -1.1 5.3 -1.2
v -1.3 5.3 -1.4
v -1.1 5.3 -1.4
v -1.5 5.6 -1
v -0.9 5.6 -1
v -1.4 5.6 -1.1
v -1 5.6 -1.1
v -1.4 5.6 -1.5
v -1 5.6 -1.5
v -1.5 5.6 -1.6
v -0.9 5.6 -1.6
v -1.4 5.7 -1.1
v -1 5.7 -1.1
v -1.3 5.7 -1.2
v -1.1 5.7 -1.2
v -1.3 5.7 -1.4
v -1.1 5.7 -1.4
v -1.4 5.7 -1.5
v -1 5.7 -1.5
v -1.3 6.2 -1
v -1.1 6.2 -1
v -1.3 6.2 -2.4
v -1.1 6.2 -2.4
v -1.3 6.4 -2.4
v -1.1 6.4 -2.4
v -1.3 6.4 -2.6
v -1.1 6.4 -2.6

# faces
f 3/4/1 2/4/1 1/4/1
f 4/4/1 2/4/1 3/4/1
f 5/4/1 3/4/1 1/4/1
f 6/4/1 2/4/1 4/4/1
f 7/4/1 5/4/1 1/4/1
f 7/4/1 6/4/1 5/4/1
f 8/4/1 2/4/1 6/4/1
f 8/4/1 6/4/1 7/4/1
f 11/4/1 10/4/1 9/4/1
f 12/4/1 10/4/1 11/4/1
f 15/4/1 14/4/1 13/4/1
f 16/4/1 14/4/1 15/4/1
f 21/3/1 20/3/1 19/3/1
f 22/3/1 20/3/1 21/3/1
f 23/2/1 22/2/1 21/2/1
f 24/2/1 22/2/1 23/2/1
f 28/1/1 26/1/1 25/1/1
f 29/1/1 26/1/1 28/1/1
f 30/1/1 18/1/1 17/1/1
f 31/1/1 29/1/1 28/1/1
f 31/1/1 30/1/1 29/1/1
f 31/1/1 28/1/1 27/1/1
f 32/1/1 18/1/1 30/1/1
f 32/1/1 30/1/1 31/1/1
f 33/1/1 18/1/1 32/1/1
f 34/1/1 18/1/1 33/1/1
f 39/4/1 36/4/1 35/4/1
f 40/4/1 36/4/1 39/4/1
f 41/4/1 38/4/1 37/4/1
f 42/4/1 38/4/1 41/4/1
f 43/4/2 44/4/2 47/4/2
f 47/4/2 44/4/2 48/4/2
f 45/4/2 46/4/2 49/4/2
f 49/4/2 46/4/2 50/4/2
f 53/3/2 54/3/2 55/3/2
f 55/3/2 54/3/2 56/3/2
f 55/2/2 56/2/2 57/2/2
f 57/2/2 56/2/2 58/2/2
f 59/1/2 60/1/2 62/1/2
f 62/1/2 60/1/2 63/1/2
f 51/1/2 52/1/2 64/1/2
f 62/1/2 63/1/2 65/1/2
f 63/1/2 64/1/2 65/1/2
f 61/1/2 62/1/2 65/1/2
f 64/1/2 52/1/2 66/1/2
f 65/1/2 64/1/2 66/1/2
f 66/1/2 52/1/2 67/1/2
f 67/1/2 52/1/2 68/1/2
f 69/4/2 70/4/2 71/4/2
f 71/4/2 70/4/2 72/4/2
f 73/4/2 74/4/2 75/4/2
f 75/4/2 74/4/2 76/4/2
f 77/4/2 78/4/2 79/4/2
f 79/4/2 78/4/2 80/4/2
f 77/4/2 79/4/2 81/4/2
f 80/4/2 78/4/2 82/4/2
f 77/4/2 81/4/2 83/4/2
f 81/4/2 82/4/2 83/4/2
f 82/4/2 78/4/2 84/4/2
f 83/4/2 82/4/2 84/4/2
f 87/4/3 86/4/3 85/4/3
f 88/4/3 86/4/3 87/4/3
f 91/1/3 90/1/3 89/1/3
f 92/1/3 90/1/3 91/1/3
f 93/4/3 87/4/3 85/4/3
f 94/4/3 86/4/3 88/4/3
f 95/4/3 93/4/3 85/4/3
f 95/4/3 94/4/3 93/4/3
f 96/4/3 86/4/3 94/4/3
f 96/4/3 94/4/3 95/4/3
f 101/4/3 98/4/3 97/4/3
f 102/4/3 98/4/3 101/4/3
f 103/4/3 100/4/3 99/4/3
f 104/4/3 100/4/3 103/4/3
f 110/3/3 106/3/3 105/3/3
f 111/2/3 107/2/3 106/2/3
f 111/3/3 106/3/3 110/3/3
f 112/2/3 107/2/3 111/2/3
f 113/1/3 109/1/3 108/1/3
f 114/1/3 109/1/3 113/1/3
f 117/4/3 116/4/3 115/4/3
f 118/4/3 116/4/3 117/4/3
f 121/4/3 120/4/3 119/4/3
f 122/4/3 120/4/3 121/4/3
f 127/1/3 124/1/3 123/1/3
f 128/1/3 124/1/3 127/1/3
f 129/1/3 126/1/3 125/1/3
f 130/1/3 126/1/3 129/1/3
f 131/4/4 132/4/4 133/4/4
f 133/4/4 132/4/4 134/4/4
f 135/4/4 136/4/4 137/4/4
f 137/4/4 136/4/4 138/4/4
f 139/3/4 140/3/4 144/3/4
f 140/2/4 141/2/4 145/2/4
f 144/3/4 140/3/4 145/3/4
f 145/2/4 141/2/4 146/2/4
f 142/1/4 143/1/4 147/1/4
f 147/1/4 143/1/4 148/1/4
f 149/4/4 150/4/4 153/4/4
f 153/4/4 150/4/4 154/4/4
f 151/4/4 152/4/4 155/4/4
f 155/4/4 152/4/4 156/4/4
f 157/4/4 158/4/4 159/4/4
f 159/4/4 158/4/4 160/4/4
f 157/4/4 159/4/4 161/4/4
f 160/4/4 158/4/4 162/4/4
f 157/4/4 161/4/4 163/4/4
f 161/4/4 162/4/4 163/4/4
f 162/4/4 158/4/4 164/4/4
f 163/4/4 162/4/4 164/4/4
f 165/1/4 166/1/4 167/1/4
f 167/1/4 166/1/4 168/1/4
f 171/1/5 170/1/5 169/1/5
f 172/1/5 170/1/5 171/1/5
f 175/4/5 174/4/5 173/4/5
f 176/4/5 174/4/5 175/4/5
f 179/4/5 178/4/5 177/4/5
f 180/4/5 178/4/5 179/4/5
f 181/4/5 179/4/5 177/4/5
f 182/4/5 178/4/5 180/4/5
f 183/4/5 181/4/5 177/4/5
f 183/4/5 182/4/5 181/4/5
f 184/4/5 178/4/5 182/4/5
f 184/4/5 182/4/5 183/4/5
f 188/4/5 186/4/5 185/4/5
f 189/4/5 186/4/5 188/4/5
f 191/4/5 188/4/5 187/4/5
f 191/4/5 190/4/5 189/4/5
f 191/4/5 189/4/5 188/4/5
f 192/4/5 190/4/5 191/4/5
f 193/4/5 190/4/5 192/4/5
f 194/4/5 190/4/5 193/4/5
f 195/4/5 193/4/5 192/4/5
f 196/4/5 193/4/5 195/4/5
f 199/1/5 198/1/5 197/1/5
f 200/1/5 198/1/5 199/1/5
f 203/1/5 202/1/5 201/1/5
f 204/1/5 202/1/5 203/1/5
f 205/4/6 206/4/6 208/4/6
f 208/4/6 206/4/6 209/4/6
f 207/4/6 208/4/6 211/4/6
f 209/4/6 210/4/6 211/4/6
f 208/4/6 209/4/6 211/4/6
f 211/4/6 210/4/6 212/4/6
f 207/4/6 211/4/6 213/4/6
f 212/4/6 210/4/6 214/4/6
f 207/4/6 213/4/6 215/4/6
f 213/4/6 214/4/6 215/4/6
f 215/4/6 214/4/6 216/4/6
f 214/4/6 210/4/6 217/4/6
f 216/4/6 214/4/6 217/4/6
f 217/4/6 210/4/6 218/4/6
f 216/4/6 217/4/6 219/4/6
f 219/4/6 217/4/6 220/4/6
f 221/2/6 222/2/6 223/2/6
f 223/2/6 222/2/6 224/2/6
f 225/4/6 226/4/6 227/4/6
f 227/4/6 226/4/6 228/4/6
f 225/4/6 227/4/6 229/4/6
f 228/4/6 226/4/6 230/4/6
f 225/4/6 229/4/6 231/4/6
f 229/4/6 230/4/6 231/4/6
f 230/4/6 226/4/6 232/4/6
f 231/4/6 230/4/6 232/4/6
f 233/4/6 234/4/6 235/4/6
f 235/4/6 234/4/6 236/4/6
f 233/4/6 235/4/6 237/4/6
f 236/4/6 234/4/6 238/4/6
f 233/4/6 237/4/6 239/4/6
f 237/4/6 238/4/6 239/4/6
f 238/4/6 234/4/6 240/4/6
f 239/4/6 238/4/6 240/4/6
f 241/1/6 242/1/6 243/1/6
f 243/1/6 242/1/6 244/1/6
f 245/1/6 246/1/6 247/1/6
f 247/1/6 246/1/6 248/1/6
