# MagicaVoxel @ Ephtracy

# group
o 

# material
mtllib key.mtl
usemtl palette

# normals
vn -1 0 0
vn 1 0 0
vn 0 0 1
vn 0 0 -1
vn 0 -1 0
vn 0 1 0

# texcoords
vt 0.0175781 0.5
vt 0.0214844 0.5
vt 0.0449219 0.5
vt 0.0683594 0.5
vt 0.958984 0.5
vt 0.994141 0.5

# verts
v -1.4 1.6 3.1
v -1.4 1.6 3
v -1.4 2 3.1
v -1.4 2 3
v -1.3 1.5 3.1
v -1.3 1.5 3
v -1.3 1.6 3.1
v -1.3 1.6 3
v -1.3 2 3.1
v -1.3 2 3
v -1.3 2.1 3.1
v -1.3 2.1 3
v -1.2 1.4 3.1
v -1.2 1.4 3
v -1.2 1.5 3.1
v -1.2 1.5 3
v -1.2 2.1 3.1
v -1.2 2.1 3
v -1.2 2.2 3.1
v -1.2 2.2 3
v -1.1 1.3 3.1
v -1.1 1.3 3
v -1.1 1.4 3.1
v -1.1 1.4 3
v -1.1 2.2 3.1
v -1.1 2.2 3
v -1.1 2.3 3.1
v -1.1 2.3 3
v -0.9 1.7 3.1
v -0.9 1.7 3
v -0.9 1.9 3.1
v -0.9 1.9 3
v -0.1 1.5 3.1
v -0.1 1.5 3
v -0.1 1.6 3.1
v -0.1 1.6 3
v 0 1.4 3.1
v 0 1.4 3
v 0 1.5 3.1
v 0 1.5 3
v 0.3 1.5 3.1
v 0.3 1.5 3
v 0.3 1.7 3.1
v 0.3 1.7 3
v 0.4 1.4 3.1
v 0.4 1.4 3
v 0.4 1.5 3.1
v 0.4 1.5 3
v -1 1.7 3.1
v -1 1.7 3
v -1 1.9 3.1
v -1 1.9 3
v -0.8 1.3 3.1
v -0.8 1.3 3
v -0.8 1.4 3.1
v -0.8 1.4 3
v -0.8 2.2 3.1
v -0.8 2.2 3
v -0.8 2.3 3.1
v -0.8 2.3 3
v -0.6 1.4 3.1
v -0.6 1.4 3
v -0.6 1.5 3.1
v -0.6 1.5 3
v -0.6 2.1 3.1
v -0.6 2.1 3
v -0.6 2.2 3.1
v -0.6 2.2 3
v -0.5 1.5 3.1
v -0.5 1.5 3
v -0.5 1.6 3.1
v -0.5 1.6 3
v -0.5 2 3.1
v -0.5 2 3
v -0.5 2.1 3.1
v -0.5 2.1 3
v 0.1 1.4 3.1
v 0.1 1.4 3
v 0.1 1.5 3.1
v 0.1 1.5 3
v 0.2 1.5 3.1
v 0.2 1.5 3
v 0.2 1.7 3.1
v 0.2 1.7 3
v 0.6 1.4 3.1
v 0.6 1.4 3
v 0.6 1.5 3.1
v 0.6 1.5 3
v 0.6 1.9 3.1
v 0.6 1.9 3
v 0.6 2 3.1
v 0.6 2 3
v 0.7 1.5 3.1
v 0.7 1.5 3
v 0.7 1.9 3.1
v 0.7 1.9 3
v -1.4 1.6 3.1
v -1.4 2 3.1
v -1.3 1.5 3.1
v -1.3 1.6 3.1
v -1.3 1.7 3.1
v -1.3 1.8 3.1
v -1.3 2 3.1
v -1.3 2.1 3.1
v -1.2 1.4 3.1
v -1.2 1.5 3.1
v -1.2 1.6 3.1
v -1.2 1.7 3.1
v -1.2 1.8 3.1
v -1.2 1.9 3.1
v -1.2 2 3.1
v -1.2 2.1 3.1
v -1.2 2.2 3.1
v -1.1 1.3 3.1
v -1.1 1.4 3.1
v -1.1 1.5 3.1
v -1.1 1.6 3.1
v -1.1 1.7 3.1
v -1.1 1.9 3.1
v -1.1 2 3.1
v -1.1 2.1 3.1
v -1.1 2.2 3.1
v -1.1 2.3 3.1
v -1 1.6 3.1
v -1 1.7 3.1
v -1 1.9 3.1
v -1 2 3.1
v -0.9 1.6 3.1
v -0.9 1.7 3.1
v -0.9 1.9 3.1
v -0.9 2 3.1
v -0.9 2.1 3.1
v -0.9 2.2 3.1
v -0.8 1.3 3.1
v -0.8 1.4 3.1
v -0.8 1.5 3.1
v -0.8 1.7 3.1
v -0.8 1.9 3.1
v -0.8 2 3.1
v -0.8 2.1 3.1
v -0.8 2.2 3.1
v -0.8 2.3 3.1
v -0.7 1.5 3.1
v -0.7 1.6 3.1
v -0.7 1.7 3.1
v -0.7 2 3.1
v -0.7 2.1 3.1
v -0.6 1.4 3.1
v -0.6 1.5 3.1
v -0.6 1.6 3.1
v -0.6 1.7 3.1
v -0.6 1.9 3.1
v -0.6 2 3.1
v -0.6 2.1 3.1
v -0.6 2.2 3.1
v -0.5 1.5 3.1
v -0.5 1.6 3.1
v -0.5 1.7 3.1
v -0.5 1.9 3.1
v -0.5 2 3.1
v -0.5 2.1 3.1
v -0.4 1.7 3.1
v -0.4 1.8 3.1
v -0.2 1.7 3.1
v -0.2 1.8 3.1
v -0.2 1.9 3.1
v -0.1 1.5 3.1
v -0.1 1.6 3.1
v 0 1.4 3.1
v 0 1.5 3.1
v 0 1.7 3.1
v 0.1 1.4 3.1
v 0.1 1.5 3.1
v 0.1 1.7 3.1
v 0.1 1.8 3.1
v 0.1 1.9 3.1
v 0.2 1.5 3.1
v 0.2 1.7 3.1
v 0.2 1.8 3.1
v 0.2 1.9 3.1
v 0.3 1.5 3.1
v 0.3 1.7 3.1
v 0.3 1.8 3.1
v 0.3 1.9 3.1
v 0.4 1.4 3.1
v 0.4 1.5 3.1
v 0.4 1.6 3.1
v 0.4 1.7 3.1
v 0.4 1.8 3.1
v 0.4 1.9 3.1
v 0.5 1.6 3.1
v 0.5 1.7 3.1
v 0.6 1.4 3.1
v 0.6 1.5 3.1
v 0.6 1.7 3.1
v 0.6 1.8 3.1
v 0.6 1.9 3.1
v 0.6 2 3.1
v 0.7 1.5 3.1
v 0.7 1.9 3.1
v -1.4 1.6 3
v -1.4 2 3
v -1.3 1.5 3
v -1.3 1.6 3
v -1.3 1.7 3
v -1.3 1.8 3
v -1.3 2 3
v -1.3 2.1 3
v -1.2 1.4 3
v -1.2 1.5 3
v -1.2 1.6 3
v -1.2 1.7 3
v -1.2 1.8 3
v -1.2 1.9 3
v -1.2 2 3
v -1.2 2.1 3
v -1.2 2.2 3
v -1.1 1.3 3
v -1.1 1.4 3
v -1.1 1.5 3
v -1.1 1.6 3
v -1.1 1.7 3
v -1.1 1.9 3
v -1.1 2 3
v -1.1 2.1 3
v -1.1 2.2 3
v -1.1 2.3 3
v -1 1.6 3
v -1 1.7 3
v -1 1.9 3
v -1 2 3
v -0.9 1.6 3
v -0.9 1.7 3
v -0.9 1.9 3
v -0.9 2 3
v -0.9 2.1 3
v -0.9 2.2 3
v -0.8 1.3 3
v -0.8 1.4 3
v -0.8 1.5 3
v -0.8 1.7 3
v -0.8 1.9 3
v -0.8 2 3
v -0.8 2.1 3
v -0.8 2.2 3
v -0.8 2.3 3
v -0.7 1.5 3
v -0.7 1.6 3
v -0.7 1.7 3
v -0.7 2 3
v -0.7 2.1 3
v -0.6 1.4 3
v -0.6 1.5 3
v -0.6 1.6 3
v -0.6 1.7 3
v -0.6 1.9 3
v -0.6 2 3
v -0.6 2.1 3
v -0.6 2.2 3
v -0.5 1.5 3
v -0.5 1.6 3
v -0.5 1.7 3
v -0.5 1.9 3
v -0.5 2 3
v -0.5 2.1 3
v -0.4 1.7 3
v -0.4 1.8 3
v -0.2 1.7 3
v -0.2 1.8 3
v -0.2 1.9 3
v -0.1 1.5 3
v -0.1 1.6 3
v 0 1.4 3
v 0 1.5 3
v 0 1.7 3
v 0.1 1.4 3
v 0.1 1.5 3
v 0.1 1.7 3
v 0.1 1.8 3
v 0.1 1.9 3
v 0.2 1.5 3
v 0.2 1.7 3
v 0.2 1.8 3
v 0.2 1.9 3
v 0.3 1.5 3
v 0.3 1.7 3
v 0.3 1.8 3
v 0.3 1.9 3
v 0.4 1.4 3
v 0.4 1.5 3
v 0.4 1.6 3
v 0.4 1.7 3
v 0.4 1.8 3
v 0.4 1.9 3
v 0.5 1.6 3
v 0.5 1.7 3
v 0.6 1.4 3
v 0.6 1.5 3
v 0.6 1.7 3
v 0.6 1.8 3
v 0.6 1.9 3
v 0.6 2 3
v 0.7 1.5 3
v 0.7 1.9 3
v -1.1 1.3 3.1
v -0.8 1.3 3.1
v -1.1 1.3 3
v -0.8 1.3 3
v -1.2 1.4 3.1
v -1.1 1.4 3.1
v -0.8 1.4 3.1
v -0.6 1.4 3.1
v 0 1.4 3.1
v 0.1 1.4 3.1
v 0.4 1.4 3.1
v 0.6 1.4 3.1
v -1.2 1.4 3
v -1.1 1.4 3
v -0.8 1.4 3
v -0.6 1.4 3
v 0 1.4 3
v 0.1 1.4 3
v 0.4 1.4 3
v 0.6 1.4 3
v -1.3 1.5 3.1
v -1.2 1.5 3.1
v -0.6 1.5 3.1
v -0.5 1.5 3.1
v -0.1 1.5 3.1
v 0 1.5 3.1
v 0.1 1.5 3.1
v 0.2 1.5 3.1
v 0.3 1.5 3.1
v 0.4 1.5 3.1
v 0.6 1.5 3.1
v 0.7 1.5 3.1
v -1.3 1.5 3
v -1.2 1.5 3
v -0.6 1.5 3
v -0.5 1.5 3
v -0.1 1.5 3
v 0 1.5 3
v 0.1 1.5 3
v 0.2 1.5 3
v 0.3 1.5 3
v 0.4 1.5 3
v 0.6 1.5 3
v 0.7 1.5 3
v -1.4 1.6 3.1
v -1.3 1.6 3.1
v -0.5 1.6 3.1
v -0.1 1.6 3.1
v -1.4 1.6 3
v -1.3 1.6 3
v -0.5 1.6 3
v -0.1 1.6 3
v 0.2 1.7 3.1
v 0.3 1.7 3.1
v 0.2 1.7 3
v 0.3 1.7 3
v -1 1.9 3.1
v -0.9 1.9 3.1
v -1 1.9 3
v -0.9 1.9 3
v -1 1.7 3.1
v -0.9 1.7 3.1
v -1 1.7 3
v -0.9 1.7 3
v 0.6 1.9 3.1
v 0.7 1.9 3.1
v 0.6 1.9 3
v 0.7 1.9 3
v -1.4 2 3.1
v -1.3 2 3.1
v -0.5 2 3.1
v 0.6 2 3.1
v -1.4 2 3
v -1.3 2 3
v -0.5 2 3
v 0.6 2 3
v -1.3 2.1 3.1
v -1.2 2.1 3.1
v -0.6 2.1 3.1
v -0.5 2.1 3.1
v -1.3 2.1 3
v -1.2 2.1 3
v -0.6 2.1 3
v -0.5 2.1 3
v -1.2 2.2 3.1
v -1.1 2.2 3.1
v -0.8 2.2 3.1
v -0.6 2.2 3.1
v -1.2 2.2 3
v -1.1 2.2 3
v -0.8 2.2 3
v -0.6 2.2 3
v -1.1 2.3 3.1
v -0.8 2.3 3.1
v -1.1 2.3 3
v -0.8 2.3 3

# faces
f 3/6/1 2/6/1 1/6/1
f 4/6/1 2/6/1 3/6/1
f 7/6/1 6/6/1 5/6/1
f 8/6/1 6/6/1 7/6/1
f 11/6/1 10/6/1 9/6/1
f 12/6/1 10/6/1 11/6/1
f 15/6/1 14/6/1 13/6/1
f 16/6/1 14/6/1 15/6/1
f 19/6/1 18/6/1 17/6/1
f 20/6/1 18/6/1 19/6/1
f 23/6/1 22/6/1 21/6/1
f 24/6/1 22/6/1 23/6/1
f 27/6/1 26/6/1 25/6/1
f 28/6/1 26/6/1 27/6/1
f 31/6/1 30/6/1 29/6/1
f 32/6/1 30/6/1 31/6/1
f 35/6/1 34/6/1 33/6/1
f 36/6/1 34/6/1 35/6/1
f 39/6/1 38/6/1 37/6/1
f 40/6/1 38/6/1 39/6/1
f 43/6/1 42/6/1 41/6/1
f 44/6/1 42/6/1 43/6/1
f 47/6/1 46/6/1 45/6/1
f 48/6/1 46/6/1 47/6/1
f 49/6/2 50/6/2 51/6/2
f 51/6/2 50/6/2 52/6/2
f 53/6/2 54/6/2 55/6/2
f 55/6/2 54/6/2 56/6/2
f 57/6/2 58/6/2 59/6/2
f 59/6/2 58/6/2 60/6/2
f 61/6/2 62/6/2 63/6/2
f 63/6/2 62/6/2 64/6/2
f 65/6/2 66/6/2 67/6/2
f 67/6/2 66/6/2 68/6/2
f 69/6/2 70/6/2 71/6/2
f 71/6/2 70/6/2 72/6/2
f 73/6/2 74/6/2 75/6/2
f 75/6/2 74/6/2 76/6/2
f 77/6/2 78/6/2 79/6/2
f 79/6/2 78/6/2 80/6/2
f 81/6/2 82/6/2 83/6/2
f 83/6/2 82/6/2 84/6/2
f 85/6/2 86/6/2 87/6/2
f 87/6/2 86/6/2 88/6/2
f 89/6/2 90/6/2 91/6/2
f 91/6/2 90/6/2 92/6/2
f 93/6/2 94/6/2 95/6/2
f 95/6/2 94/6/2 96/6/2
f 100/6/3 98/6/3 97/6/3
f 101/6/3 98/6/3 100/6/3
f 102/6/3 98/6/3 101/6/3
f 103/6/3 98/6/3 102/6/3
f 106/6/3 100/6/3 99/6/3
f 107/4/3 101/4/3 100/4/3
f 107/6/3 100/6/3 106/6/3
f 108/3/3 102/3/3 101/3/3
f 108/4/3 101/4/3 107/4/3
f 109/5/3 103/5/3 102/5/3
f 109/3/3 102/3/3 108/3/3
f 110/5/3 103/5/3 109/5/3
f 111/6/3 104/6/3 103/6/3
f 111/5/3 103/5/3 110/5/3
f 112/6/3 104/6/3 111/6/3
f 115/6/3 106/6/3 105/6/3
f 116/4/3 107/4/3 106/4/3
f 116/6/3 106/6/3 115/6/3
f 117/3/3 110/3/3 109/3/3
f 117/4/3 107/4/3 116/4/3
f 117/3/3 108/3/3 107/3/3
f 117/3/3 109/3/3 108/3/3
f 118/3/3 110/3/3 117/3/3
f 119/4/3 111/4/3 110/4/3
f 119/3/3 110/3/3 118/3/3
f 120/5/3 112/5/3 111/5/3
f 120/4/3 111/4/3 119/4/3
f 121/6/3 113/6/3 112/6/3
f 121/5/3 112/5/3 120/5/3
f 122/6/3 113/6/3 121/6/3
f 124/3/3 118/3/3 117/3/3
f 124/3/3 117/3/3 116/3/3
f 125/6/3 119/6/3 118/6/3
f 125/3/3 118/3/3 124/3/3
f 126/2/3 120/2/3 119/2/3
f 126/6/3 119/6/3 125/6/3
f 127/3/3 121/3/3 120/3/3
f 127/2/3 120/2/3 126/2/3
f 128/6/3 125/6/3 124/6/3
f 128/3/3 124/3/3 116/3/3
f 129/6/3 125/6/3 128/6/3
f 130/6/3 127/6/3 126/6/3
f 131/3/3 121/3/3 127/3/3
f 131/6/3 127/6/3 130/6/3
f 132/5/3 122/5/3 121/5/3
f 132/3/3 121/3/3 131/3/3
f 133/6/3 123/6/3 122/6/3
f 133/5/3 122/5/3 132/5/3
f 134/6/3 115/6/3 114/6/3
f 135/4/3 116/4/3 115/4/3
f 135/6/3 115/6/3 134/6/3
f 136/3/3 129/3/3 128/3/3
f 136/4/3 116/4/3 135/4/3
f 136/3/3 128/3/3 116/3/3
f 137/6/3 130/6/3 129/6/3
f 137/3/3 129/3/3 136/3/3
f 138/3/3 132/3/3 131/3/3
f 138/6/3 130/6/3 137/6/3
f 138/3/3 131/3/3 130/3/3
f 139/3/3 132/3/3 138/3/3
f 140/1/3 133/1/3 132/1/3
f 140/3/3 132/3/3 139/3/3
f 141/6/3 123/6/3 133/6/3
f 141/1/3 133/1/3 140/1/3
f 142/6/3 123/6/3 141/6/3
f 143/6/3 136/6/3 135/6/3
f 143/3/3 137/3/3 136/3/3
f 144/3/3 137/3/3 143/3/3
f 145/4/3 138/4/3 137/4/3
f 145/3/3 137/3/3 144/3/3
f 145/4/3 139/4/3 138/4/3
f 146/1/3 140/1/3 139/1/3
f 146/4/3 139/4/3 145/4/3
f 147/6/3 141/6/3 140/6/3
f 147/1/3 140/1/3 146/1/3
f 148/6/3 143/6/3 135/6/3
f 149/4/3 144/4/3 143/4/3
f 149/6/3 143/6/3 148/6/3
f 150/3/3 145/3/3 144/3/3
f 150/4/3 144/4/3 149/4/3
f 150/3/3 146/3/3 145/3/3
f 151/3/3 146/3/3 150/3/3
f 152/3/3 146/3/3 151/3/3
f 153/5/3 147/5/3 146/5/3
f 153/3/3 146/3/3 152/3/3
f 154/6/3 141/6/3 147/6/3
f 154/5/3 147/5/3 153/5/3
f 155/6/3 141/6/3 154/6/3
f 156/6/3 150/6/3 149/6/3
f 157/4/3 151/4/3 150/4/3
f 157/6/3 150/6/3 156/6/3
f 158/3/3 152/3/3 151/3/3
f 158/4/3 151/4/3 157/4/3
f 159/5/3 153/5/3 152/5/3
f 159/3/3 152/3/3 158/3/3
f 160/6/3 154/6/3 153/6/3
f 160/5/3 153/5/3 159/5/3
f 161/6/3 154/6/3 160/6/3
f 162/6/3 158/6/3 157/6/3
f 162/3/3 159/3/3 158/3/3
f 163/3/3 159/3/3 162/3/3
f 164/6/3 162/6/3 157/6/3
f 164/4/3 163/4/3 162/4/3
f 165/3/3 159/3/3 163/3/3
f 165/4/3 163/4/3 164/4/3
f 166/6/3 160/6/3 159/6/3
f 166/3/3 159/3/3 165/3/3
f 168/6/3 164/6/3 157/6/3
f 170/6/3 168/6/3 167/6/3
f 171/3/3 165/3/3 164/3/3
f 171/6/3 164/6/3 168/6/3
f 171/6/3 168/6/3 170/6/3
f 172/6/3 170/6/3 169/6/3
f 173/4/3 171/4/3 170/4/3
f 173/6/3 170/6/3 172/6/3
f 174/3/3 165/3/3 171/3/3
f 174/4/3 171/4/3 173/4/3
f 175/1/3 166/1/3 165/1/3
f 175/3/3 165/3/3 174/3/3
f 176/6/3 160/6/3 166/6/3
f 176/1/3 166/1/3 175/1/3
f 177/6/3 174/6/3 173/6/3
f 178/3/3 175/3/3 174/3/3
f 178/6/3 174/6/3 177/6/3
f 178/3/3 176/3/3 175/3/3
f 179/3/3 176/3/3 178/3/3
f 180/6/3 160/6/3 176/6/3
f 180/3/3 176/3/3 179/3/3
f 182/6/3 179/6/3 178/6/3
f 183/1/3 180/1/3 179/1/3
f 183/6/3 179/6/3 182/6/3
f 184/6/3 160/6/3 180/6/3
f 184/1/3 180/1/3 183/1/3
f 186/6/3 182/6/3 181/6/3
f 187/6/3 182/6/3 186/6/3
f 188/3/3 183/3/3 182/3/3
f 188/6/3 182/6/3 187/6/3
f 188/3/3 184/3/3 183/3/3
f 189/3/3 184/3/3 188/3/3
f 190/6/3 160/6/3 184/6/3
f 190/3/3 184/3/3 189/3/3
f 191/3/3 189/3/3 188/3/3
f 191/4/3 187/4/3 186/4/3
f 191/3/3 188/3/3 187/3/3
f 192/3/3 189/3/3 191/3/3
f 193/6/3 186/6/3 185/6/3
f 194/4/3 191/4/3 186/4/3
f 194/6/3 186/6/3 193/6/3
f 194/4/3 192/4/3 191/4/3
f 195/3/3 189/3/3 192/3/3
f 195/4/3 192/4/3 194/4/3
f 196/5/3 190/5/3 189/5/3
f 196/3/3 189/3/3 195/3/3
f 197/6/3 160/6/3 190/6/3
f 197/5/3 190/5/3 196/5/3
f 198/6/3 160/6/3 197/6/3
f 199/6/3 196/6/3 195/6/3
f 199/6/3 195/6/3 194/6/3
f 199/6/3 197/6/3 196/6/3
f 200/6/3 197/6/3 199/6/3
f 201/6/4 202/6/4 204/6/4
f 204/6/4 202/6/4 205/6/4
f 205/6/4 202/6/4 206/6/4
f 206/6/4 202/6/4 207/6/4
f 203/6/4 204/6/4 210/6/4
f 204/4/4 205/4/4 211/4/4
f 210/6/4 204/6/4 211/6/4
f 205/3/4 206/3/4 212/3/4
f 211/4/4 205/4/4 212/4/4
f 206/5/4 207/5/4 213/5/4
f 212/3/4 206/3/4 213/3/4
f 213/5/4 207/5/4 214/5/4
f 207/6/4 208/6/4 215/6/4
f 214/5/4 207/5/4 215/5/4
f 215/6/4 208/6/4 216/6/4
f 209/6/4 210/6/4 219/6/4
f 210/4/4 211/4/4 220/4/4
f 219/6/4 210/6/4 220/6/4
f 213/3/4 214/3/4 221/3/4
f 220/4/4 211/4/4 221/4/4
f 211/3/4 212/3/4 221/3/4
f 212/3/4 213/3/4 221/3/4
f 221/3/4 214/3/4 222/3/4
f 214/4/4 215/4/4 223/4/4
f 222/3/4 214/3/4 223/3/4
f 215/5/4 216/5/4 224/5/4
f 223/4/4 215/4/4 224/4/4
f 216/6/4 217/6/4 225/6/4
f 224/5/4 216/5/4 225/5/4
f 225/6/4 217/6/4 226/6/4
f 221/3/4 222/3/4 228/3/4
f 220/3/4 221/3/4 228/3/4
f 222/6/4 223/6/4 229/6/4
f 228/3/4 222/3/4 229/3/4
f 223/2/4 224/2/4 230/2/4
f 229/6/4 223/6/4 230/6/4
f 224/3/4 225/3/4 231/3/4
f 230/2/4 224/2/4 231/2/4
f 228/6/4 229/6/4 232/6/4
f 220/3/4 228/3/4 232/3/4
f 232/6/4 229/6/4 233/6/4
f 230/6/4 231/6/4 234/6/4
f 231/3/4 225/3/4 235/3/4
f 234/6/4 231/6/4 235/6/4
f 225/5/4 226/5/4 236/5/4
f 235/3/4 225/3/4 236/3/4
f 226/6/4 227/6/4 237/6/4
f 236/5/4 226/5/4 237/5/4
f 218/6/4 219/6/4 238/6/4
f 219/4/4 220/4/4 239/4/4
f 238/6/4 219/6/4 239/6/4
f 232/3/4 233/3/4 240/3/4
f 239/4/4 220/4/4 240/4/4
f 220/3/4 232/3/4 240/3/4
f 233/6/4 234/6/4 241/6/4
f 240/3/4 233/3/4 241/3/4
f 235/3/4 236/3/4 242/3/4
f 241/6/4 234/6/4 242/6/4
f 234/3/4 235/3/4 242/3/4
f 242/3/4 236/3/4 243/3/4
f 236/1/4 237/1/4 244/1/4
f 243/3/4 236/3/4 244/3/4
f 237/6/4 227/6/4 245/6/4
f 244/1/4 237/1/4 245/1/4
f 245/6/4 227/6/4 246/6/4
f 239/6/4 240/6/4 247/6/4
f 240/3/4 241/3/4 247/3/4
f 247/3/4 241/3/4 248/3/4
f 241/4/4 242/4/4 249/4/4
f 248/3/4 241/3/4 249/3/4
f 242/4/4 243/4/4 249/4/4
f 243/1/4 244/1/4 250/1/4
f 249/4/4 243/4/4 250/4/4
f 244/6/4 245/6/4 251/6/4
f 250/1/4 244/1/4 251/1/4
f 239/6/4 247/6/4 252/6/4
f 247/4/4 248/4/4 253/4/4
f 252/6/4 247/6/4 253/6/4
f 248/3/4 249/3/4 254/3/4
f 253/4/4 248/4/4 254/4/4
f 249/3/4 250/3/4 254/3/4
f 254/3/4 250/3/4 255/3/4
f 255/3/4 250/3/4 256/3/4
f 250/5/4 251/5/4 257/5/4
f 256/3/4 250/3/4 257/3/4
f 251/6/4 245/6/4 258/6/4
f 257/5/4 251/5/4 258/5/4
f 258/6/4 245/6/4 259/6/4
f 253/6/4 254/6/4 260/6/4
f 254/4/4 255/4/4 261/4/4
f 260/6/4 254/6/4 261/6/4
f 255/3/4 256/3/4 262/3/4
f 261/4/4 255/4/4 262/4/4
f 256/5/4 257/5/4 263/5/4
f 262/3/4 256/3/4 263/3/4
f 257/6/4 258/6/4 264/6/4
f 263/5/4 257/5/4 264/5/4
f 264/6/4 258/6/4 265/6/4
f 261/6/4 262/6/4 266/6/4
f 262/3/4 263/3/4 266/3/4
f 266/3/4 263/3/4 267/3/4
f 261/6/4 266/6/4 268/6/4
f 266/4/4 267/4/4 268/4/4
f 267/3/4 263/3/4 269/3/4
f 268/4/4 267/4/4 269/4/4
f 263/6/4 264/6/4 270/6/4
f 269/3/4 263/3/4 270/3/4
f 261/6/4 268/6/4 272/6/4
f 271/6/4 272/6/4 274/6/4
f 268/3/4 269/3/4 275/3/4
f 272/6/4 268/6/4 275/6/4
f 274/6/4 272/6/4 275/6/4
f 273/6/4 274/6/4 276/6/4
f 274/4/4 275/4/4 277/4/4
f 276/6/4 274/6/4 277/6/4
f 275/3/4 269/3/4 278/3/4
f 277/4/4 275/4/4 278/4/4
f 269/1/4 270/1/4 279/1/4
f 278/3/4 269/3/4 279/3/4
f 270/6/4 264/6/4 280/6/4
f 279/1/4 270/1/4 280/1/4
f 277/6/4 278/6/4 281/6/4
f 278/3/4 279/3/4 282/3/4
f 281/6/4 278/6/4 282/6/4
f 279/3/4 280/3/4 282/3/4
f 282/3/4 280/3/4 283/3/4
f 280/6/4 264/6/4 284/6/4
f 283/3/4 280/3/4 284/3/4
f 282/6/4 283/6/4 286/6/4
f 283/1/4 284/1/4 287/1/4
f 286/6/4 283/6/4 287/6/4
f 284/6/4 264/6/4 288/6/4
f 287/1/4 284/1/4 288/1/4
f 285/6/4 286/6/4 290/6/4
f 290/6/4 286/6/4 291/6/4
f 286/3/4 287/3/4 292/3/4
f 291/6/4 286/6/4 292/6/4
f 287/3/4 288/3/4 292/3/4
f 292/3/4 288/3/4 293/3/4
f 288/6/4 264/6/4 294/6/4
f 293/3/4 288/3/4 294/3/4
f 292/3/4 293/3/4 295/3/4
f 290/4/4 291/4/4 295/4/4
f 291/3/4 292/3/4 295/3/4
f 295/3/4 293/3/4 296/3/4
f 289/6/4 290/6/4 297/6/4
f 290/4/4 295/4/4 298/4/4
f 297/6/4 290/6/4 298/6/4
f 295/4/4 296/4/4 298/4/4
f 296/3/4 293/3/4 299/3/4
f 298/4/4 296/4/4 299/4/4
f 293/5/4 294/5/4 300/5/4
f 299/3/4 293/3/4 300/3/4
f 294/6/4 264/6/4 301/6/4
f 300/5/4 294/5/4 301/5/4
f 301/6/4 264/6/4 302/6/4
f 299/6/4 300/6/4 303/6/4
f 298/6/4 299/6/4 303/6/4
f 300/6/4 301/6/4 303/6/4
f 303/6/4 301/6/4 304/6/4
f 307/6/5 306/6/5 305/6/5
f 308/6/5 306/6/5 307/6/5
f 317/6/5 310/6/5 309/6/5
f 318/6/5 310/6/5 317/6/5
f 319/6/5 312/6/5 311/6/5
f 320/6/5 312/6/5 319/6/5
f 321/6/5 314/6/5 313/6/5
f 322/6/5 314/6/5 321/6/5
f 323/6/5 316/6/5 315/6/5
f 324/6/5 316/6/5 323/6/5
f 337/6/5 326/6/5 325/6/5
f 338/6/5 326/6/5 337/6/5
f 339/6/5 328/6/5 327/6/5
f 340/6/5 328/6/5 339/6/5
f 341/6/5 330/6/5 329/6/5
f 342/6/5 330/6/5 341/6/5
f 343/6/5 332/6/5 331/6/5
f 344/6/5 332/6/5 343/6/5
f 345/6/5 334/6/5 333/6/5
f 346/6/5 334/6/5 345/6/5
f 347/6/5 336/6/5 335/6/5
f 348/6/5 336/6/5 347/6/5
f 353/6/5 350/6/5 349/6/5
f 354/6/5 350/6/5 353/6/5
f 355/6/5 352/6/5 351/6/5
f 356/6/5 352/6/5 355/6/5
f 359/6/5 358/6/5 357/6/5
f 360/6/5 358/6/5 359/6/5
f 363/6/5 362/6/5 361/6/5
f 364/6/5 362/6/5 363/6/5
f 365/6/6 366/6/6 367/6/6
f 367/6/6 366/6/6 368/6/6
f 369/6/6 370/6/6 371/6/6
f 371/6/6 370/6/6 372/6/6
f 373/6/6 374/6/6 377/6/6
f 377/6/6 374/6/6 378/6/6
f 375/6/6 376/6/6 379/6/6
f 379/6/6 376/6/6 380/6/6
f 381/6/6 382/6/6 385/6/6
f 385/6/6 382/6/6 386/6/6
f 383/6/6 384/6/6 387/6/6
f 387/6/6 384/6/6 388/6/6
f 389/6/6 390/6/6 393/6/6
f 393/6/6 390/6/6 394/6/6
f 391/6/6 392/6/6 395/6/6
f 395/6/6 392/6/6 396/6/6
f 397/6/6 398/6/6 399/6/6
f 399/6/6 398/6/6 400/6/6
