# MagicaVoxel @ Ephtracy

# group
o 

# material
mtllib money.mtl
usemtl palette

# normals
vn -1 0 0
vn 1 0 0
vn 0 0 1
vn 0 0 -1
vn 0 -1 0
vn 0 1 0

# texcoords
vt 0.00976563 0.5
vt 0.0136719 0.5
vt 0.0175781 0.5
vt 0.0214844 0.5

# verts
v -0.6 0.2 0.1
v -0.6 0.2 0
v -0.6 1.3 0.1
v -0.6 1.3 0
v -0.5 0.1 0.1
v -0.5 0.1 0
v -0.5 0.2 0.1
v -0.5 0.2 0
v -0.5 0.3 0.2
v -0.5 0.3 0.1
v -0.5 0.3 0
v -0.5 0.3 -0.1
v -0.5 1.2 0.2
v -0.5 1.2 0.1
v -0.5 1.2 0
v -0.5 1.2 -0.1
v -0.5 1.3 0.1
v -0.5 1.3 0
v -0.5 1.4 0.1
v -0.5 1.4 0
v -0.4 0 0.1
v -0.4 0 0
v -0.4 0.1 0.1
v -0.4 0.1 0
v -0.4 0.2 0.2
v -0.4 0.2 0.1
v -0.4 0.2 0
v -0.4 0.2 -0.1
v -0.4 0.3 0.2
v -0.4 0.3 0.1
v -0.4 0.3 0
v -0.4 0.3 -0.1
v -0.4 1.2 0.2
v -0.4 1.2 0.1
v -0.4 1.2 0
v -0.4 1.2 -0.1
v -0.4 1.3 0.2
v -0.4 1.3 0.1
v -0.4 1.3 0
v -0.4 1.3 -0.1
v -0.4 1.4 0.1
v -0.4 1.4 0
v -0.4 1.5 0.1
v -0.4 1.5 0
v -0.3 0.1 0.2
v -0.3 0.1 0.1
v -0.3 0.1 0
v -0.3 0.1 -0.1
v -0.3 0.2 0.2
v -0.3 0.2 0.1
v -0.3 0.2 0
v -0.3 0.2 -0.1
v -0.3 1.3 0.2
v -0.3 1.3 0.1
v -0.3 1.3 0
v -0.3 1.3 -0.1
v -0.3 1.4 0.2
v -0.3 1.4 0.1
v -0.3 1.4 0
v -0.3 1.4 -0.1
v 0.2 0.1 0.2
v 0.2 0.1 0.1
v 0.2 0.1 0
v 0.2 0.1 -0.1
v 0.2 0.2 0.2
v 0.2 0.2 0.1
v 0.2 0.2 0
v 0.2 0.2 -0.1
v 0.2 1.3 0.2
v 0.2 1.3 0.1
v 0.2 1.3 0
v 0.2 1.3 -0.1
v 0.2 1.4 0.2
v 0.2 1.4 0.1
v 0.2 1.4 0
v 0.2 1.4 -0.1
v 0.3 0 0.1
v 0.3 0 0
v 0.3 0.1 0.1
v 0.3 0.1 0
v 0.3 0.2 0.2
v 0.3 0.2 0.1
v 0.3 0.2 0
v 0.3 0.2 -0.1
v 0.3 0.3 0.2
v 0.3 0.3 0.1
v 0.3 0.3 0
v 0.3 0.3 -0.1
v 0.3 1.2 0.2
v 0.3 1.2 0.1
v 0.3 1.2 0
v 0.3 1.2 -0.1
v 0.3 1.3 0.2
v 0.3 1.3 0.1
v 0.3 1.3 0
v 0.3 1.3 -0.1
v 0.3 1.4 0.1
v 0.3 1.4 0
v 0.3 1.5 0.1
v 0.3 1.5 0
v 0.4 0.1 0.1
v 0.4 0.1 0
v 0.4 0.2 0.1
v 0.4 0.2 0
v 0.4 0.3 0.2
v 0.4 0.3 0.1
v 0.4 0.3 0
v 0.4 0.3 -0.1
v 0.4 1.2 0.2
v 0.4 1.2 0.1
v 0.4 1.2 0
v 0.4 1.2 -0.1
v 0.4 1.3 0.1
v 0.4 1.3 0
v 0.4 1.4 0.1
v 0.4 1.4 0
v 0.5 0.2 0.1
v 0.5 0.2 0
v 0.5 1.3 0.1
v 0.5 1.3 0
v -0.5 0.3 0.2
v -0.5 1.2 0.2
v -0.4 0.2 0.2
v -0.4 0.3 0.2
v -0.4 1.2 0.2
v -0.4 1.3 0.2
v -0.3 0.1 0.2
v -0.3 0.2 0.2
v -0.3 0.3 0.2
v -0.3 0.4 0.2
v -0.3 0.9 0.2
v -0.3 1.2 0.2
v -0.3 1.3 0.2
v -0.3 1.4 0.2
v -0.2 0.1 0.2
v -0.2 0.3 0.2
v -0.2 0.4 0.2
v -0.2 0.9 0.2
v -0.2 1.2 0.2
v -0.2 1.4 0.2
v -0.1 0.1 0.2
v -0.1 0.2 0.2
v -0.1 0.3 0.2
v -0.1 0.7 0.2
v -0.1 0.8 0.2
v -0.1 1.2 0.2
v -0.1 1.3 0.2
v -0.1 1.4 0.2
v -5.96046e-008 0.1 0.2
v -5.96046e-008 0.2 0.2
v -5.96046e-008 0.3 0.2
v -5.96046e-008 0.7 0.2
v -5.96046e-008 0.8 0.2
v -5.96046e-008 1.2 0.2
v -5.96046e-008 1.3 0.2
v -5.96046e-008 1.4 0.2
v 0.1 0.1 0.2
v 0.1 0.3 0.2
v 0.1 0.6 0.2
v 0.1 1.1 0.2
v 0.1 1.2 0.2
v 0.1 1.4 0.2
v 0.2 0.1 0.2
v 0.2 0.2 0.2
v 0.2 0.3 0.2
v 0.2 0.6 0.2
v 0.2 1.1 0.2
v 0.2 1.2 0.2
v 0.2 1.3 0.2
v 0.2 1.4 0.2
v 0.3 0.2 0.2
v 0.3 0.3 0.2
v 0.3 1.2 0.2
v 0.3 1.3 0.2
v 0.4 0.3 0.2
v 0.4 1.2 0.2
v -0.6 0.2 0.1
v -0.6 1.3 0.1
v -0.5 0.1 0.1
v -0.5 0.2 0.1
v -0.5 0.3 0.1
v -0.5 1.2 0.1
v -0.5 1.3 0.1
v -0.5 1.4 0.1
v -0.4 0 0.1
v -0.4 0.1 0.1
v -0.4 0.2 0.1
v -0.4 0.3 0.1
v -0.4 1.2 0.1
v -0.4 1.3 0.1
v -0.4 1.4 0.1
v -0.4 1.5 0.1
v -0.3 0.1 0.1
v -0.3 0.2 0.1
v -0.3 1.3 0.1
v -0.3 1.4 0.1
v -0.2 0.1 0.1
v -0.2 1.4 0.1
v -0.1 0.1 0.1
v -0.1 1.4 0.1
v -5.96046e-008 0.1 0.1
v -5.96046e-008 1.4 0.1
v 0.1 0.1 0.1
v 0.1 1.4 0.1
v 0.2 0.1 0.1
v 0.2 0.2 0.1
v 0.2 1.3 0.1
v 0.2 1.4 0.1
v 0.3 0 0.1
v 0.3 0.1 0.1
v 0.3 0.2 0.1
v 0.3 0.3 0.1
v 0.3 1.2 0.1
v 0.3 1.3 0.1
v 0.3 1.4 0.1
v 0.3 1.5 0.1
v 0.4 0.1 0.1
v 0.4 0.2 0.1
v 0.4 0.3 0.1
v 0.4 1.2 0.1
v 0.4 1.3 0.1
v 0.4 1.4 0.1
v 0.5 0.2 0.1
v 0.5 1.3 0.1
v -0.6 0.2 0
v -0.6 1.3 0
v -0.5 0.1 0
v -0.5 0.2 0
v -0.5 0.3 0
v -0.5 1.2 0
v -0.5 1.3 0
v -0.5 1.4 0
v -0.4 0 0
v -0.4 0.1 0
v -0.4 0.2 0
v -0.4 0.3 0
v -0.4 1.2 0
v -0.4 1.3 0
v -0.4 1.4 0
v -0.4 1.5 0
v -0.3 0.1 0
v -0.3 0.2 0
v -0.3 1.3 0
v -0.3 1.4 0
v -0.2 0.1 0
v -0.2 1.4 0
v -0.1 0.1 0
v -0.1 1.4 0
v -5.96046e-008 0.1 0
v -5.96046e-008 1.4 0
v 0.1 0.1 0
v 0.1 1.4 0
v 0.2 0.1 0
v 0.2 0.2 0
v 0.2 1.3 0
v 0.2 1.4 0
v 0.3 0 0
v 0.3 0.1 0
v 0.3 0.2 0
v 0.3 0.3 0
v 0.3 1.2 0
v 0.3 1.3 0
v 0.3 1.4 0
v 0.3 1.5 0
v 0.4 0.1 0
v 0.4 0.2 0
v 0.4 0.3 0
v 0.4 1.2 0
v 0.4 1.3 0
v 0.4 1.4 0
v 0.5 0.2 0
v 0.5 1.3 0
v -0.5 0.3 -0.1
v -0.5 1.2 -0.1
v -0.4 0.2 -0.1
v -0.4 0.3 -0.1
v -0.4 1.2 -0.1
v -0.4 1.3 -0.1
v -0.3 0.1 -0.1
v -0.3 0.2 -0.1
v -0.3 0.3 -0.1
v -0.3 0.4 -0.1
v -0.3 0.9 -0.1
v -0.3 1.2 -0.1
v -0.3 1.3 -0.1
v -0.3 1.4 -0.1
v -0.2 0.1 -0.1
v -0.2 0.3 -0.1
v -0.2 0.4 -0.1
v -0.2 0.9 -0.1
v -0.2 1.2 -0.1
v -0.2 1.4 -0.1
v -0.1 0.1 -0.1
v -0.1 0.2 -0.1
v -0.1 0.3 -0.1
v -0.1 0.7 -0.1
v -0.1 0.8 -0.1
v -0.1 1.2 -0.1
v -0.1 1.3 -0.1
v -0.1 1.4 -0.1
v -5.96046e-008 0.1 -0.1
v -5.96046e-008 0.2 -0.1
v -5.96046e-008 0.3 -0.1
v -5.96046e-008 0.7 -0.1
v -5.96046e-008 0.8 -0.1
v -5.96046e-008 1.2 -0.1
v -5.96046e-008 1.3 -0.1
v -5.96046e-008 1.4 -0.1
v 0.1 0.1 -0.1
v 0.1 0.3 -0.1
v 0.1 0.6 -0.1
v 0.1 1.1 -0.1
v 0.1 1.2 -0.1
v 0.1 1.4 -0.1
v 0.2 0.1 -0.1
v 0.2 0.2 -0.1
v 0.2 0.3 -0.1
v 0.2 0.6 -0.1
v 0.2 1.1 -0.1
v 0.2 1.2 -0.1
v 0.2 1.3 -0.1
v 0.2 1.4 -0.1
v 0.3 0.2 -0.1
v 0.3 0.3 -0.1
v 0.3 1.2 -0.1
v 0.3 1.3 -0.1
v 0.4 0.3 -0.1
v 0.4 1.2 -0.1
v -0.4 0 0.1
v 0.3 0 0.1
v -0.4 0 0
v 0.3 0 0
v -0.3 0.1 0.2
v -0.2 0.1 0.2
v -0.1 0.1 0.2
v -5.96046e-008 0.1 0.2
v 0.1 0.1 0.2
v 0.2 0.1 0.2
v -0.5 0.1 0.1
v -0.4 0.1 0.1
v -0.3 0.1 0.1
v -0.2 0.1 0.1
v -0.1 0.1 0.1
v -5.96046e-008 0.1 0.1
v 0.1 0.1 0.1
v 0.2 0.1 0.1
v 0.3 0.1 0.1
v 0.4 0.1 0.1
v -0.5 0.1 0
v -0.4 0.1 0
v -0.3 0.1 0
v -0.2 0.1 0
v -0.1 0.1 0
v -5.96046e-008 0.1 0
v 0.1 0.1 0
v 0.2 0.1 0
v 0.3 0.1 0
v 0.4 0.1 0
v -0.3 0.1 -0.1
v -0.2 0.1 -0.1
v -0.1 0.1 -0.1
v -5.96046e-008 0.1 -0.1
v 0.1 0.1 -0.1
v 0.2 0.1 -0.1
v -0.4 0.2 0.2
v -0.3 0.2 0.2
v 0.2 0.2 0.2
v 0.3 0.2 0.2
v -0.6 0.2 0.1
v -0.5 0.2 0.1
v -0.4 0.2 0.1
v -0.3 0.2 0.1
v 0.2 0.2 0.1
v 0.3 0.2 0.1
v 0.4 0.2 0.1
v 0.5 0.2 0.1
v -0.6 0.2 0
v -0.5 0.2 0
v -0.4 0.2 0
v -0.3 0.2 0
v 0.2 0.2 0
v 0.3 0.2 0
v 0.4 0.2 0
v 0.5 0.2 0
v -0.4 0.2 -0.1
v -0.3 0.2 -0.1
v 0.2 0.2 -0.1
v 0.3 0.2 -0.1
v -0.5 0.3 0.2
v -0.4 0.3 0.2
v 0.3 0.3 0.2
v 0.4 0.3 0.2
v -0.5 0.3 0.1
v -0.4 0.3 0.1
v 0.3 0.3 0.1
v 0.4 0.3 0.1
v -0.5 0.3 0
v -0.4 0.3 0
v 0.3 0.3 0
v 0.4 0.3 0
v -0.5 0.3 -0.1
v -0.4 0.3 -0.1
v 0.3 0.3 -0.1
v 0.4 0.3 -0.1
v -0.5 1.2 0.2
v -0.4 1.2 0.2
v 0.3 1.2 0.2
v 0.4 1.2 0.2
v -0.5 1.2 0.1
v -0.4 1.2 0.1
v 0.3 1.2 0.1
v 0.4 1.2 0.1
v -0.5 1.2 0
v -0.4 1.2 0
v 0.3 1.2 0
v 0.4 1.2 0
v -0.5 1.2 -0.1
v -0.4 1.2 -0.1
v 0.3 1.2 -0.1
v 0.4 1.2 -0.1
v -0.4 1.3 0.2
v -0.3 1.3 0.2
v 0.2 1.3 0.2
v 0.3 1.3 0.2
v -0.6 1.3 0.1
v -0.5 1.3 0.1
v -0.4 1.3 0.1
v -0.3 1.3 0.1
v 0.2 1.3 0.1
v 0.3 1.3 0.1
v 0.4 1.3 0.1
v 0.5 1.3 0.1
v -0.6 1.3 0
v -0.5 1.3 0
v -0.4 1.3 0
v -0.3 1.3 0
v 0.2 1.3 0
v 0.3 1.3 0
v 0.4 1.3 0
v 0.5 1.3 0
v -0.4 1.3 -0.1
v -0.3 1.3 -0.1
v 0.2 1.3 -0.1
v 0.3 1.3 -0.1
v -0.3 1.4 0.2
v -0.2 1.4 0.2
v -0.1 1.4 0.2
v -5.96046e-008 1.4 0.2
v 0.1 1.4 0.2
v 0.2 1.4 0.2
v -0.5 1.4 0.1
v -0.4 1.4 0.1
v -0.3 1.4 0.1
v -0.2 1.4 0.1
v -0.1 1.4 0.1
v -5.96046e-008 1.4 0.1
v 0.1 1.4 0.1
v 0.2 1.4 0.1
v 0.3 1.4 0.1
v 0.4 1.4 0.1
v -0.5 1.4 0
v -0.4 1.4 0
v -0.3 1.4 0
v -0.2 1.4 0
v -0.1 1.4 0
v -5.96046e-008 1.4 0
v 0.1 1.4 0
v 0.2 1.4 0
v 0.3 1.4 0
v 0.4 1.4 0
v -0.3 1.4 -0.1
v -0.2 1.4 -0.1
v -0.1 1.4 -0.1
v -5.96046e-008 1.4 -0.1
v 0.1 1.4 -0.1
v 0.2 1.4 -0.1
v -0.4 1.5 0.1
v 0.3 1.5 0.1
v -0.4 1.5 0
v 0.3 1.5 0

# faces
f 3/3/1 2/3/1 1/3/1
f 4/3/1 2/3/1 3/3/1
f 7/3/1 6/3/1 5/3/1
f 8/3/1 6/3/1 7/3/1
f 13/2/1 10/2/1 9/2/1
f 14/2/1 10/2/1 13/2/1
f 15/2/1 12/2/1 11/2/1
f 16/2/1 12/2/1 15/2/1
f 19/3/1 18/3/1 17/3/1
f 20/3/1 18/3/1 19/3/1
f 23/3/1 22/3/1 21/3/1
f 24/3/1 22/3/1 23/3/1
f 29/2/1 26/2/1 25/2/1
f 30/2/1 26/2/1 29/2/1
f 31/2/1 28/2/1 27/2/1
f 32/2/1 28/2/1 31/2/1
f 37/2/1 34/2/1 33/2/1
f 38/2/1 34/2/1 37/2/1
f 39/2/1 36/2/1 35/2/1
f 40/2/1 36/2/1 39/2/1
f 43/3/1 42/3/1 41/3/1
f 44/3/1 42/3/1 43/3/1
f 49/2/1 46/2/1 45/2/1
f 50/2/1 46/2/1 49/2/1
f 51/2/1 48/2/1 47/2/1
f 52/2/1 48/2/1 51/2/1
f 57/2/1 54/2/1 53/2/1
f 58/2/1 54/2/1 57/2/1
f 59/2/1 56/2/1 55/2/1
f 60/2/1 56/2/1 59/2/1
f 61/2/2 62/2/2 65/2/2
f 65/2/2 62/2/2 66/2/2
f 63/2/2 64/2/2 67/2/2
f 67/2/2 64/2/2 68/2/2
f 69/2/2 70/2/2 73/2/2
f 73/2/2 70/2/2 74/2/2
f 71/2/2 72/2/2 75/2/2
f 75/2/2 72/2/2 76/2/2
f 77/3/2 78/3/2 79/3/2
f 79/3/2 78/3/2 80/3/2
f 81/2/2 82/2/2 85/2/2
f 85/2/2 82/2/2 86/2/2
f 83/2/2 84/2/2 87/2/2
f 87/2/2 84/2/2 88/2/2
f 89/2/2 90/2/2 93/2/2
f 93/2/2 90/2/2 94/2/2
f 91/2/2 92/2/2 95/2/2
f 95/2/2 92/2/2 96/2/2
f 97/3/2 98/3/2 99/3/2
f 99/3/2 98/3/2 100/3/2
f 101/3/2 102/3/2 103/3/2
f 103/3/2 102/3/2 104/3/2
f 105/2/2 106/2/2 109/2/2
f 109/2/2 106/2/2 110/2/2
f 107/2/2 108/2/2 111/2/2
f 111/2/2 108/2/2 112/2/2
f 113/3/2 114/3/2 115/3/2
f 115/3/2 114/3/2 116/3/2
f 117/3/2 118/3/2 119/3/2
f 119/3/2 118/3/2 120/3/2
f 124/2/3 122/2/3 121/2/3
f 125/2/3 122/2/3 124/2/3
f 128/2/3 124/2/3 123/2/3
f 128/2/3 126/2/3 125/2/3
f 128/2/3 125/2/3 124/2/3
f 129/2/3 126/2/3 128/2/3
f 130/2/3 126/2/3 129/2/3
f 131/2/3 126/2/3 130/2/3
f 132/2/3 126/2/3 131/2/3
f 133/2/3 126/2/3 132/2/3
f 135/2/3 128/2/3 127/2/3
f 135/2/3 129/2/3 128/2/3
f 136/4/3 130/4/3 129/4/3
f 136/2/3 129/2/3 135/2/3
f 137/2/3 131/2/3 130/2/3
f 137/4/3 130/4/3 136/4/3
f 138/4/3 132/4/3 131/4/3
f 138/2/3 131/2/3 137/2/3
f 139/2/3 134/2/3 133/2/3
f 139/4/3 132/4/3 138/4/3
f 139/2/3 133/2/3 132/2/3
f 140/2/3 134/2/3 139/2/3
f 141/1/3 138/1/3 137/1/3
f 141/1/3 137/1/3 136/1/3
f 141/1/3 140/1/3 139/1/3
f 141/1/3 139/1/3 138/1/3
f 141/1/3 136/1/3 135/1/3
f 142/1/3 140/1/3 141/1/3
f 143/1/3 140/1/3 142/1/3
f 144/1/3 140/1/3 143/1/3
f 145/1/3 140/1/3 144/1/3
f 146/1/3 140/1/3 145/1/3
f 147/1/3 140/1/3 146/1/3
f 148/1/3 140/1/3 147/1/3
f 149/2/3 142/2/3 141/2/3
f 150/4/3 143/4/3 142/4/3
f 150/2/3 142/2/3 149/2/3
f 151/2/3 144/2/3 143/2/3
f 151/4/3 143/4/3 150/4/3
f 152/4/3 145/4/3 144/4/3
f 152/2/3 144/2/3 151/2/3
f 153/2/3 146/2/3 145/2/3
f 153/4/3 145/4/3 152/4/3
f 154/4/3 147/4/3 146/4/3
f 154/2/3 146/2/3 153/2/3
f 155/2/3 148/2/3 147/2/3
f 155/4/3 147/4/3 154/4/3
f 156/2/3 148/2/3 155/2/3
f 157/1/3 150/1/3 149/1/3
f 157/1/3 151/1/3 150/1/3
f 157/1/3 156/1/3 155/1/3
f 157/1/3 155/1/3 154/1/3
f 157/1/3 154/1/3 153/1/3
f 157/1/3 153/1/3 152/1/3
f 157/1/3 152/1/3 151/1/3
f 158/1/3 156/1/3 157/1/3
f 159/1/3 156/1/3 158/1/3
f 160/1/3 156/1/3 159/1/3
f 161/1/3 156/1/3 160/1/3
f 162/1/3 156/1/3 161/1/3
f 163/2/3 158/2/3 157/2/3
f 164/2/3 158/2/3 163/2/3
f 165/4/3 159/4/3 158/4/3
f 165/2/3 158/2/3 164/2/3
f 166/2/3 160/2/3 159/2/3
f 166/4/3 159/4/3 165/4/3
f 167/4/3 161/4/3 160/4/3
f 167/2/3 160/2/3 166/2/3
f 168/2/3 162/2/3 161/2/3
f 168/4/3 161/4/3 167/4/3
f 169/2/3 162/2/3 168/2/3
f 170/2/3 162/2/3 169/2/3
f 171/2/3 165/2/3 164/2/3
f 171/2/3 169/2/3 168/2/3
f 171/2/3 168/2/3 167/2/3
f 171/2/3 166/2/3 165/2/3
f 171/2/3 167/2/3 166/2/3
f 172/2/3 169/2/3 171/2/3
f 173/2/3 169/2/3 172/2/3
f 174/2/3 169/2/3 173/2/3
f 175/2/3 173/2/3 172/2/3
f 176/2/3 173/2/3 175/2/3
f 180/3/3 178/3/3 177/3/3
f 181/3/3 178/3/3 180/3/3
f 182/3/3 178/3/3 181/3/3
f 183/3/3 178/3/3 182/3/3
f 186/3/3 180/3/3 179/3/3
f 186/3/3 181/3/3 180/3/3
f 187/3/3 181/3/3 186/3/3
f 188/3/3 181/3/3 187/3/3
f 189/3/3 183/3/3 182/3/3
f 189/3/3 184/3/3 183/3/3
f 190/3/3 184/3/3 189/3/3
f 191/3/3 184/3/3 190/3/3
f 193/3/3 187/3/3 186/3/3
f 193/3/3 186/3/3 185/3/3
f 194/3/3 187/3/3 193/3/3
f 195/3/3 192/3/3 191/3/3
f 195/3/3 191/3/3 190/3/3
f 196/3/3 192/3/3 195/3/3
f 197/3/3 193/3/3 185/3/3
f 198/3/3 192/3/3 196/3/3
f 199/3/3 197/3/3 185/3/3
f 200/3/3 192/3/3 198/3/3
f 201/3/3 199/3/3 185/3/3
f 202/3/3 192/3/3 200/3/3
f 203/3/3 201/3/3 185/3/3
f 204/3/3 192/3/3 202/3/3
f 205/3/3 203/3/3 185/3/3
f 208/3/3 192/3/3 204/3/3
f 209/3/3 206/3/3 205/3/3
f 209/3/3 205/3/3 185/3/3
f 210/3/3 206/3/3 209/3/3
f 211/3/3 206/3/3 210/3/3
f 214/3/3 208/3/3 207/3/3
f 215/3/3 192/3/3 208/3/3
f 215/3/3 208/3/3 214/3/3
f 216/3/3 192/3/3 215/3/3
f 217/3/3 212/3/3 211/3/3
f 217/3/3 211/3/3 210/3/3
f 218/3/3 212/3/3 217/3/3
f 219/3/3 212/3/3 218/3/3
f 220/3/3 214/3/3 213/3/3
f 220/3/3 215/3/3 214/3/3
f 221/3/3 215/3/3 220/3/3
f 222/3/3 215/3/3 221/3/3
f 223/3/3 219/3/3 218/3/3
f 223/3/3 221/3/3 220/3/3
f 223/3/3 220/3/3 219/3/3
f 224/3/3 221/3/3 223/3/3
f 225/3/4 226/3/4 228/3/4
f 228/3/4 226/3/4 229/3/4
f 229/3/4 226/3/4 230/3/4
f 230/3/4 226/3/4 231/3/4
f 227/3/4 228/3/4 234/3/4
f 228/3/4 229/3/4 234/3/4
f 234/3/4 229/3/4 235/3/4
f 235/3/4 229/3/4 236/3/4
f 230/3/4 231/3/4 237/3/4
f 231/3/4 232/3/4 237/3/4
f 237/3/4 232/3/4 238/3/4
f 238/3/4 232/3/4 239/3/4
f 234/3/4 235/3/4 241/3/4
f 233/3/4 234/3/4 241/3/4
f 241/3/4 235/3/4 242/3/4
f 239/3/4 240/3/4 243/3/4
f 238/3/4 239/3/4 243/3/4
f 243/3/4 240/3/4 244/3/4
f 233/3/4 241/3/4 245/3/4
f 244/3/4 240/3/4 246/3/4
f 233/3/4 245/3/4 247/3/4
f 246/3/4 240/3/4 248/3/4
f 233/3/4 247/3/4 249/3/4
f 248/3/4 240/3/4 250/3/4
f 233/3/4 249/3/4 251/3/4
f 250/3/4 240/3/4 252/3/4
f 233/3/4 251/3/4 253/3/4
f 252/3/4 240/3/4 256/3/4
f 253/3/4 254/3/4 257/3/4
f 233/3/4 253/3/4 257/3/4
f 257/3/4 254/3/4 258/3/4
f 258/3/4 254/3/4 259/3/4
f 255/3/4 256/3/4 262/3/4
f 256/3/4 240/3/4 263/3/4
f 262/3/4 256/3/4 263/3/4
f 263/3/4 240/3/4 264/3/4
f 259/3/4 260/3/4 265/3/4
f 258/3/4 259/3/4 265/3/4
f 265/3/4 260/3/4 266/3/4
f 266/3/4 260/3/4 267/3/4
f 261/3/4 262/3/4 268/3/4
f 262/3/4 263/3/4 268/3/4
f 268/3/4 263/3/4 269/3/4
f 269/3/4 263/3/4 270/3/4
f 266/3/4 267/3/4 271/3/4
f 268/3/4 269/3/4 271/3/4
f 267/3/4 268/3/4 271/3/4
f 271/3/4 269/3/4 272/3/4
f 273/2/4 274/2/4 276/2/4
f 276/2/4 274/2/4 277/2/4
f 275/2/4 276/2/4 280/2/4
f 277/2/4 278/2/4 280/2/4
f 276/2/4 277/2/4 280/2/4
f 280/2/4 278/2/4 281/2/4
f 281/2/4 278/2/4 282/2/4
f 282/2/4 278/2/4 283/2/4
f 283/2/4 278/2/4 284/2/4
f 284/2/4 278/2/4 285/2/4
f 279/2/4 280/2/4 287/2/4
f 280/2/4 281/2/4 287/2/4
f 281/4/4 282/4/4 288/4/4
f 287/2/4 281/2/4 288/2/4
f 282/2/4 283/2/4 289/2/4
f 288/4/4 282/4/4 289/4/4
f 283/4/4 284/4/4 290/4/4
f 289/2/4 283/2/4 290/2/4
f 285/2/4 286/2/4 291/2/4
f 290/4/4 284/4/4 291/4/4
f 284/2/4 285/2/4 291/2/4
f 291/2/4 286/2/4 292/2/4
f 289/1/4 290/1/4 293/1/4
f 288/1/4 289/1/4 293/1/4
f 291/1/4 292/1/4 293/1/4
f 290/1/4 291/1/4 293/1/4
f 287/1/4 288/1/4 293/1/4
f 293/1/4 292/1/4 294/1/4
f 294/1/4 292/1/4 295/1/4
f 295/1/4 292/1/4 296/1/4
f 296/1/4 292/1/4 297/1/4
f 297/1/4 292/1/4 298/1/4
f 298/1/4 292/1/4 299/1/4
f 299/1/4 292/1/4 300/1/4
f 293/2/4 294/2/4 301/2/4
f 294/4/4 295/4/4 302/4/4
f 301/2/4 294/2/4 302/2/4
f 295/2/4 296/2/4 303/2/4
f 302/4/4 295/4/4 303/4/4
f 296/4/4 297/4/4 304/4/4
f 303/2/4 296/2/4 304/2/4
f 297/2/4 298/2/4 305/2/4
f 304/4/4 297/4/4 305/4/4
f 298/4/4 299/4/4 306/4/4
f 305/2/4 298/2/4 306/2/4
f 299/2/4 300/2/4 307/2/4
f 306/4/4 299/4/4 307/4/4
f 307/2/4 300/2/4 308/2/4
f 301/1/4 302/1/4 309/1/4
f 302/1/4 303/1/4 309/1/4
f 307/1/4 308/1/4 309/1/4
f 306/1/4 307/1/4 309/1/4
f 305/1/4 306/1/4 309/1/4
f 304/1/4 305/1/4 309/1/4
f 303/1/4 304/1/4 309/1/4
f 309/1/4 308/1/4 310/1/4
f 310/1/4 308/1/4 311/1/4
f 311/1/4 308/1/4 312/1/4
f 312/1/4 308/1/4 313/1/4
f 313/1/4 308/1/4 314/1/4
f 309/2/4 310/2/4 315/2/4
f 315/2/4 310/2/4 316/2/4
f 310/4/4 311/4/4 317/4/4
f 316/2/4 310/2/4 317/2/4
f 311/2/4 312/2/4 318/2/4
f 317/4/4 311/4/4 318/4/4
f 312/4/4 313/4/4 319/4/4
f 318/2/4 312/2/4 319/2/4
f 313/2/4 314/2/4 320/2/4
f 319/4/4 313/4/4 320/4/4
f 320/2/4 314/2/4 321/2/4
f 321/2/4 314/2/4 322/2/4
f 316/2/4 317/2/4 323/2/4
f 320/2/4 321/2/4 323/2/4
f 319/2/4 320/2/4 323/2/4
f 317/2/4 318/2/4 323/2/4
f 318/2/4 319/2/4 323/2/4
f 323/2/4 321/2/4 324/2/4
f 324/2/4 321/2/4 325/2/4
f 325/2/4 321/2/4 326/2/4
f 324/2/4 325/2/4 327/2/4
f 327/2/4 325/2/4 328/2/4
f 331/3/5 330/3/5 329/3/5
f 332/3/5 330/3/5 331/3/5
f 341/2/5 334/2/5 333/2/5
f 342/1/5 335/1/5 334/1/5
f 342/2/5 334/2/5 341/2/5
f 343/2/5 336/2/5 335/2/5
f 343/1/5 335/1/5 342/1/5
f 344/1/5 337/1/5 336/1/5
f 344/2/5 336/2/5 343/2/5
f 345/2/5 338/2/5 337/2/5
f 345/1/5 337/1/5 344/1/5
f 346/2/5 338/2/5 345/2/5
f 349/3/5 340/3/5 339/3/5
f 350/3/5 340/3/5 349/3/5
f 357/3/5 348/3/5 347/3/5
f 358/3/5 348/3/5 357/3/5
f 359/2/5 352/2/5 351/2/5
f 360/1/5 353/1/5 352/1/5
f 360/2/5 352/2/5 359/2/5
f 361/2/5 354/2/5 353/2/5
f 361/1/5 353/1/5 360/1/5
f 362/1/5 355/1/5 354/1/5
f 362/2/5 354/2/5 361/2/5
f 363/2/5 356/2/5 355/2/5
f 363/1/5 355/1/5 362/1/5
f 364/2/5 356/2/5 363/2/5
f 371/2/5 366/2/5 365/2/5
f 372/2/5 366/2/5 371/2/5
f 373/2/5 368/2/5 367/2/5
f 374/2/5 368/2/5 373/2/5
f 377/3/5 370/3/5 369/3/5
f 378/3/5 370/3/5 377/3/5
f 383/3/5 376/3/5 375/3/5
f 384/3/5 376/3/5 383/3/5
f 385/2/5 380/2/5 379/2/5
f 386/2/5 380/2/5 385/2/5
f 387/2/5 382/2/5 381/2/5
f 388/2/5 382/2/5 387/2/5
f 393/2/5 390/2/5 389/2/5
f 394/2/5 390/2/5 393/2/5
f 395/2/5 392/2/5 391/2/5
f 396/2/5 392/2/5 395/2/5
f 401/2/5 398/2/5 397/2/5
f 402/2/5 398/2/5 401/2/5
f 403/2/5 400/2/5 399/2/5
f 404/2/5 400/2/5 403/2/5
f 405/2/6 406/2/6 409/2/6
f 409/2/6 406/2/6 410/2/6
f 407/2/6 408/2/6 411/2/6
f 411/2/6 408/2/6 412/2/6
f 413/2/6 414/2/6 417/2/6
f 417/2/6 414/2/6 418/2/6
f 415/2/6 416/2/6 419/2/6
f 419/2/6 416/2/6 420/2/6
f 421/2/6 422/2/6 427/2/6
f 427/2/6 422/2/6 428/2/6
f 423/2/6 424/2/6 429/2/6
f 429/2/6 424/2/6 430/2/6
f 425/3/6 426/3/6 433/3/6
f 433/3/6 426/3/6 434/3/6
f 431/3/6 432/3/6 439/3/6
f 439/3/6 432/3/6 440/3/6
f 435/2/6 436/2/6 441/2/6
f 441/2/6 436/2/6 442/2/6
f 437/2/6 438/2/6 443/2/6
f 443/2/6 438/2/6 444/2/6
f 445/2/6 446/2/6 453/2/6
f 446/1/6 447/1/6 454/1/6
f 453/2/6 446/2/6 454/2/6
f 447/2/6 448/2/6 455/2/6
f 454/1/6 447/1/6 455/1/6
f 448/1/6 449/1/6 456/1/6
f 455/2/6 448/2/6 456/2/6
f 449/2/6 450/2/6 457/2/6
f 456/1/6 449/1/6 457/1/6
f 457/2/6 450/2/6 458/2/6
f 451/3/6 452/3/6 461/3/6
f 461/3/6 452/3/6 462/3/6
f 459/3/6 460/3/6 469/3/6
f 469/3/6 460/3/6 470/3/6
f 463/2/6 464/2/6 471/2/6
f 464/1/6 465/1/6 472/1/6
f 471/2/6 464/2/6 472/2/6
f 465/2/6 466/2/6 473/2/6
f 472/1/6 465/1/6 473/1/6
f 466/1/6 467/1/6 474/1/6
f 473/2/6 466/2/6 474/2/6
f 467/2/6 468/2/6 475/2/6
f 474/1/6 467/1/6 475/1/6
f 475/2/6 468/2/6 476/2/6
f 477/3/6 478/3/6 479/3/6
f 479/3/6 478/3/6 480/3/6
