# MagicaVoxel @ Ephtracy

# group
o 

# material
mtllib table.mtl
usemtl palette

# normals
vn -1 0 0
vn 1 0 0
vn 0 0 1
vn 0 0 -1
vn 0 -1 0
vn 0 1 0

# texcoords
vt 0.373047 0.5
vt 0.904297 0.5
vt 0.994141 0.5

# verts
v -0.6 2.4 0.1
v -0.6 2.4 0
v -0.6 2.4 -0.1
v -0.6 2.4 -0.2
v -0.6 2.5 -0.1
v -0.6 2.5 -0.2
v -0.6 2.6 0.1
v -0.6 2.6 0
v -0.6 2.7 0.1
v -0.6 2.7 0
v -0.6 2.7 -0.1
v -0.6 2.7 -0.2
v -0.6 2.8 0.1
v -0.6 2.8 0
v -0.6 2.8 -0.1
v -0.6 2.8 -0.2
v -0.6 2.9 0.1
v -0.6 2.9 0
v -0.6 2.9 -0.1
v -0.6 2.9 -0.2
v -0.5 2.2 0.1
v -0.5 2.2 0
v -0.5 2.2 -0.1
v -0.5 2.2 -0.2
v -0.5 2.3 0
v -0.5 2.3 -0.1
v -0.5 2.4 0.1
v -0.5 2.4 0
v -0.5 2.4 -0.1
v -0.5 2.4 -0.2
v -0.5 2.5 0
v -0.5 2.5 -0.1
v -0.5 2.6 0
v -0.5 2.6 -0.1
v -0.5 2.7 0.1
v -0.5 2.7 0
v -0.5 2.7 -0.1
v -0.5 2.7 -0.2
v -0.5 2.8 0.1
v -0.5 2.8 0
v -0.5 2.8 -0.1
v -0.5 2.8 -0.2
v -0.5 2.9 0.1
v -0.5 2.9 0
v -0.5 2.9 -0.1
v -0.5 2.9 -0.2
v -0.5 3 0.1
v -0.5 3 0
v -0.5 3 -0.1
v -0.5 3 -0.2
v -5.96046e-008 1.1 0
v -5.96046e-008 1.1 -0.1
v -5.96046e-008 1.2 0
v -5.96046e-008 1.2 -0.1
v -5.96046e-008 2 0
v -5.96046e-008 2 -0.1
v -5.96046e-008 2.2 0
v -5.96046e-008 2.2 -0.1
v -5.96046e-008 2.3 0
v -5.96046e-008 2.3 -0.1
v 0.1 1.1 0
v 0.1 1.1 -0.1
v 0.1 1.2 0
v 0.1 1.2 -0.1
v 0.1 2 0
v 0.1 2 -0.1
v 0.1 2.2 0
v 0.1 2.2 -0.1
v 0.1 2.3 0
v 0.1 2.3 -0.1
v 0.6 2.3 0
v 0.6 2.3 -0.1
v 0.6 2.4 0.1
v 0.6 2.4 0
v 0.6 2.4 -0.1
v 0.6 2.4 -0.2
v 0.6 2.5 0.1
v 0.6 2.5 0
v 0.6 2.5 -0.1
v 0.6 2.5 -0.2
v 0.6 2.6 0.1
v 0.6 2.6 0
v 0.6 2.6 -0.1
v 0.6 2.6 -0.2
v 0.6 2.7 0
v 0.6 2.7 -0.1
v 0.6 2.8 0.1
v 0.6 2.8 0
v 0.6 2.8 -0.1
v 0.6 2.8 -0.2
v 0.6 2.9 0.1
v 0.6 2.9 0
v 0.6 2.9 -0.1
v 0.6 2.9 -0.2
v 0.7 2.2 0.1
v 0.7 2.2 0
v 0.7 2.2 -0.1
v 0.7 2.2 -0.2
v 0.7 2.4 0.1
v 0.7 2.4 0
v 0.7 2.4 -0.1
v 0.7 2.4 -0.2
v 0.7 2.6 0.1
v 0.7 2.6 0
v 0.7 2.6 -0.1
v 0.7 2.6 -0.2
v 0.7 2.8 0.1
v 0.7 2.8 0
v 0.7 2.8 -0.1
v 0.7 2.8 -0.2
v 0.7 2.9 0.1
v 0.7 2.9 0
v 0.7 2.9 -0.1
v 0.7 2.9 -0.2
v 0.7 3 0.1
v 0.7 3 0
v 0.7 3 -0.1
v 0.7 3 -0.2
v -0.6 2.4 0.1
v -0.6 2.6 0.1
v -0.6 2.7 0.1
v -0.6 2.8 0.1
v -0.6 2.9 0.1
v -0.5 2.2 0.1
v -0.5 2.4 0.1
v -0.5 2.6 0.1
v -0.5 2.7 0.1
v -0.5 2.8 0.1
v -0.5 2.9 0.1
v -0.5 3 0.1
v -0.4 2.5 0.1
v -0.4 2.6 0.1
v -0.4 2.7 0.1
v -0.4 2.9 0.1
v -0.3 2.5 0.1
v -0.3 2.6 0.1
v -0.3 2.7 0.1
v -0.3 2.9 0.1
v -0.3 3 0.1
v -0.2 2.5 0.1
v -0.2 2.6 0.1
v -0.2 2.7 0.1
v -0.2 3 0.1
v -0.1 2.7 0.1
v -0.1 2.8 0.1
v -0.1 3 0.1
v -5.96046e-008 2.5 0.1
v -5.96046e-008 2.6 0.1
v -5.96046e-008 2.7 0.1
v -5.96046e-008 2.8 0.1
v 0.1 2.4 0.1
v 0.1 2.6 0.1
v 0.1 2.8 0.1
v 0.1 2.9 0.1
v 0.1 3 0.1
v 0.2 2.5 0.1
v 0.2 2.6 0.1
v 0.2 2.7 0.1
v 0.2 2.8 0.1
v 0.2 2.9 0.1
v 0.3 2.4 0.1
v 0.3 2.5 0.1
v 0.3 2.7 0.1
v 0.4 2.4 0.1
v 0.4 2.5 0.1
v 0.4 2.6 0.1
v 0.4 2.7 0.1
v 0.5 2.4 0.1
v 0.5 2.5 0.1
v 0.5 2.7 0.1
v 0.5 2.8 0.1
v 0.5 2.9 0.1
v 0.6 2.4 0.1
v 0.6 2.5 0.1
v 0.6 2.6 0.1
v 0.6 2.8 0.1
v 0.6 2.9 0.1
v 0.7 2.2 0.1
v 0.7 2.4 0.1
v 0.7 2.6 0.1
v 0.7 2.8 0.1
v 0.7 2.9 0.1
v 0.7 3 0.1
v -5.96046e-008 1.1 0
v -5.96046e-008 1.2 0
v -5.96046e-008 2 0
v -5.96046e-008 2.2 0
v 0.1 1.1 0
v 0.1 1.2 0
v 0.1 2 0
v 0.1 2.2 0
v -0.6 2.4 -0.1
v -0.6 2.5 -0.1
v -0.6 2.7 -0.1
v -0.6 2.8 -0.1
v -0.6 2.9 -0.1
v -0.5 2.2 -0.1
v -0.5 2.3 -0.1
v -0.5 2.4 -0.1
v -0.5 2.5 -0.1
v -0.5 2.6 -0.1
v -0.5 2.7 -0.1
v -0.5 2.8 -0.1
v -0.5 2.9 -0.1
v -0.5 3 -0.1
v -0.4 2.4 -0.1
v -0.4 2.5 -0.1
v -0.4 2.6 -0.1
v -0.4 2.7 -0.1
v -0.3 2.2 -0.1
v -0.3 2.3 -0.1
v -0.3 2.4 -0.1
v -0.3 2.5 -0.1
v -0.3 2.9 -0.1
v -0.2 2.2 -0.1
v -0.2 2.3 -0.1
v -0.2 2.6 -0.1
v -0.2 2.7 -0.1
v -5.96046e-008 2.2 -0.1
v -5.96046e-008 2.3 -0.1
v 0.1 2.2 -0.1
v 0.1 2.3 -0.1
v 0.1 2.6 -0.1
v 0.1 2.7 -0.1
v 0.1 2.9 -0.1
v 0.2 2.4 -0.1
v 0.2 2.5 -0.1
v 0.3 2.4 -0.1
v 0.3 2.5 -0.1
v 0.3 2.6 -0.1
v 0.3 2.7 -0.1
v 0.4 2.6 -0.1
v 0.4 2.7 -0.1
v 0.6 2.3 -0.1
v 0.6 2.4 -0.1
v 0.6 2.5 -0.1
v 0.6 2.6 -0.1
v 0.6 2.7 -0.1
v 0.6 2.8 -0.1
v 0.6 2.9 -0.1
v 0.7 2.2 -0.1
v 0.7 2.4 -0.1
v 0.7 2.6 -0.1
v 0.7 2.8 -0.1
v 0.7 2.9 -0.1
v 0.7 3 -0.1
v -0.6 2.4 0
v -0.6 2.6 0
v -0.6 2.7 0
v -0.6 2.8 0
v -0.6 2.9 0
v -0.5 2.2 0
v -0.5 2.3 0
v -0.5 2.4 0
v -0.5 2.5 0
v -0.5 2.6 0
v -0.5 2.7 0
v -0.5 2.8 0
v -0.5 2.9 0
v -0.5 3 0
v -0.3 2.9 0
v -0.3 3 0
v -0.2 2.9 0
v -0.2 3 0
v -0.1 2.9 0
v -0.1 3 0
v -5.96046e-008 2.2 0
v -5.96046e-008 2.3 0
v 0.1 2.2 0
v 0.1 2.3 0
v 0.1 2.4 0
v 0.1 2.5 0
v 0.1 2.9 0
v 0.1 3 0
v 0.3 2.4 0
v 0.3 2.5 0
v 0.3 2.6 0
v 0.3 2.7 0
v 0.4 2.4 0
v 0.4 2.5 0
v 0.4 2.6 0
v 0.4 2.7 0
v 0.5 2.4 0
v 0.5 2.5 0
v 0.6 2.3 0
v 0.6 2.4 0
v 0.6 2.5 0
v 0.6 2.6 0
v 0.6 2.7 0
v 0.6 2.8 0
v 0.6 2.9 0
v 0.7 2.2 0
v 0.7 2.4 0
v 0.7 2.6 0
v 0.7 2.8 0
v 0.7 2.9 0
v 0.7 3 0
v -5.96046e-008 1.1 -0.1
v -5.96046e-008 1.2 -0.1
v -5.96046e-008 2 -0.1
v -5.96046e-008 2.2 -0.1
v 0.1 1.1 -0.1
v 0.1 1.2 -0.1
v 0.1 2 -0.1
v 0.1 2.2 -0.1
v -0.6 2.4 -0.2
v -0.6 2.5 -0.2
v -0.6 2.7 -0.2
v -0.6 2.8 -0.2
v -0.6 2.9 -0.2
v -0.5 2.2 -0.2
v -0.5 2.4 -0.2
v -0.5 2.6 -0.2
v -0.5 2.7 -0.2
v -0.5 2.8 -0.2
v -0.5 2.9 -0.2
v -0.5 3 -0.2
v -0.4 2.3 -0.2
v -0.4 2.5 -0.2
v -0.4 2.6 -0.2
v -0.4 2.7 -0.2
v -0.4 2.8 -0.2
v -0.4 2.9 -0.2
v -0.3 2.2 -0.2
v -0.3 2.3 -0.2
v -0.3 2.4 -0.2
v -0.3 2.6 -0.2
v -0.3 2.7 -0.2
v -0.3 2.8 -0.2
v -0.2 2.2 -0.2
v -0.2 2.4 -0.2
v -0.2 2.6 -0.2
v -0.2 2.9 -0.2
v -0.1 2.8 -0.2
v -0.1 2.9 -0.2
v 0.1 2.6 -0.2
v 0.1 2.8 -0.2
v 0.2 2.4 -0.2
v 0.2 2.6 -0.2
v 0.2 2.8 -0.2
v 0.2 2.9 -0.2
v 0.3 2.4 -0.2
v 0.3 2.7 -0.2
v 0.3 2.8 -0.2
v 0.3 2.9 -0.2
v 0.4 2.5 -0.2
v 0.4 2.7 -0.2
v 0.6 2.4 -0.2
v 0.6 2.5 -0.2
v 0.6 2.6 -0.2
v 0.6 2.8 -0.2
v 0.6 2.9 -0.2
v 0.7 2.2 -0.2
v 0.7 2.4 -0.2
v 0.7 2.6 -0.2
v 0.7 2.8 -0.2
v 0.7 2.9 -0.2
v 0.7 3 -0.2
v -5.96046e-008 1.1 0
v 0.1 1.1 0
v -5.96046e-008 1.1 -0.1
v 0.1 1.1 -0.1
v -0.5 2.2 0.1
v 0.7 2.2 0.1
v -0.5 2.2 0
v -5.96046e-008 2.2 0
v 0.1 2.2 0
v 0.7 2.2 0
v -0.5 2.2 -0.1
v -0.3 2.2 -0.1
v -0.2 2.2 -0.1
v -5.96046e-008 2.2 -0.1
v 0.1 2.2 -0.1
v 0.7 2.2 -0.1
v -0.5 2.2 -0.2
v -0.3 2.2 -0.2
v -0.2 2.2 -0.2
v 0.7 2.2 -0.2
v -0.5 2.3 0
v -5.96046e-008 2.3 0
v 0.1 2.3 0
v 0.6 2.3 0
v -0.5 2.3 -0.1
v -0.3 2.3 -0.1
v -0.2 2.3 -0.1
v -5.96046e-008 2.3 -0.1
v 0.1 2.3 -0.1
v 0.6 2.3 -0.1
v -0.6 2.4 0.1
v -0.5 2.4 0.1
v -0.6 2.4 0
v -0.5 2.4 0
v -0.6 2.4 -0.1
v -0.5 2.4 -0.1
v -0.6 2.4 -0.2
v -0.5 2.4 -0.2
v -0.5 2.5 0
v 0.1 2.5 0
v 0.3 2.5 0
v 0.4 2.5 0
v 0.5 2.5 0
v 0.6 2.5 0
v -0.5 2.5 -0.1
v -0.4 2.5 -0.1
v -0.3 2.5 -0.1
v 0.2 2.5 -0.1
v 0.3 2.5 -0.1
v 0.6 2.5 -0.1
v 0.6 2.6 0.1
v 0.7 2.6 0.1
v 0.6 2.6 0
v 0.7 2.6 0
v 0.6 2.6 -0.1
v 0.7 2.6 -0.1
v 0.6 2.6 -0.2
v 0.7 2.6 -0.2
v -0.5 2.7 0
v 0.3 2.7 0
v 0.4 2.7 0
v 0.6 2.7 0
v -0.5 2.7 -0.1
v -0.4 2.7 -0.1
v -0.2 2.7 -0.1
v 0.1 2.7 -0.1
v 0.3 2.7 -0.1
v 0.4 2.7 -0.1
v 0.6 2.7 -0.1
v -0.6 2.8 0.1
v -0.5 2.8 0.1
v -0.6 2.8 0
v -0.5 2.8 0
v -0.6 2.8 -0.1
v -0.5 2.8 -0.1
v -0.6 2.8 -0.2
v -0.5 2.8 -0.2
v 0.6 2.9 0.1
v 0.7 2.9 0.1
v 0.6 2.9 0
v 0.7 2.9 0
v 0.6 2.9 -0.1
v 0.7 2.9 -0.1
v 0.6 2.9 -0.2
v 0.7 2.9 -0.2
v 0.6 2.4 0.1
v 0.7 2.4 0.1
v -0.5 2.4 0
v 0.1 2.4 0
v 0.3 2.4 0
v 0.4 2.4 0
v 0.5 2.4 0
v 0.6 2.4 0
v 0.7 2.4 0
v -0.5 2.4 -0.1
v -0.4 2.4 -0.1
v -0.3 2.4 -0.1
v 0.2 2.4 -0.1
v 0.3 2.4 -0.1
v 0.6 2.4 -0.1
v 0.7 2.4 -0.1
v 0.6 2.4 -0.2
v 0.7 2.4 -0.2
v -0.5 2.6 0
v 0.3 2.6 0
v 0.4 2.6 0
v 0.6 2.6 0
v -0.5 2.6 -0.1
v -0.4 2.6 -0.1
v -0.2 2.6 -0.1
v 0.1 2.6 -0.1
v 0.3 2.6 -0.1
v 0.4 2.6 -0.1
v 0.6 2.6 -0.1
v -0.6 2.7 0.1
v -0.5 2.7 0.1
v -0.6 2.7 0
v -0.5 2.7 0
v -0.6 2.7 -0.1
v -0.5 2.7 -0.1
v -0.6 2.7 -0.2
v -0.5 2.7 -0.2
v 0.6 2.8 0.1
v 0.7 2.8 0.1
v 0.6 2.8 0
v 0.7 2.8 0
v 0.6 2.8 -0.1
v 0.7 2.8 -0.1
v 0.6 2.8 -0.2
v 0.7 2.8 -0.2
v -0.6 2.9 0.1
v -0.5 2.9 0.1
v -0.6 2.9 0
v -0.5 2.9 0
v -0.3 2.9 0
v -0.2 2.9 0
v -0.1 2.9 0
v 0.1 2.9 0
v 0.6 2.9 0
v -0.6 2.9 -0.1
v -0.5 2.9 -0.1
v -0.3 2.9 -0.1
v 0.1 2.9 -0.1
v 0.6 2.9 -0.1
v -0.6 2.9 -0.2
v -0.5 2.9 -0.2
v -0.5 3 0.1
v -0.3 3 0.1
v -0.2 3 0.1
v -0.1 3 0.1
v 0.1 3 0.1
v 0.7 3 0.1
v -0.5 3 0
v -0.3 3 0
v -0.2 3 0
v -0.1 3 0
v 0.1 3 0
v 0.7 3 0
v -0.5 3 -0.1
v 0.7 3 -0.1
v -0.5 3 -0.2
v 0.7 3 -0.2

# faces
f 5/1/1 4/1/1 3/1/1
f 6/1/1 4/1/1 5/1/1
f 7/1/1 2/1/1 1/1/1
f 8/1/1 2/1/1 7/1/1
f 9/2/1 8/2/1 7/2/1
f 10/2/1 8/2/1 9/2/1
f 11/2/1 6/2/1 5/2/1
f 12/2/1 6/2/1 11/2/1
f 17/2/1 14/2/1 13/2/1
f 18/2/1 14/2/1 17/2/1
f 19/2/1 16/2/1 15/2/1
f 20/2/1 16/2/1 19/2/1
f 25/1/1 22/1/1 21/1/1
f 26/1/1 24/1/1 23/1/1
f 27/1/1 25/1/1 21/1/1
f 27/1/1 26/1/1 25/1/1
f 28/1/1 26/1/1 27/1/1
f 29/1/1 24/1/1 26/1/1
f 29/1/1 26/1/1 28/1/1
f 30/1/1 24/1/1 29/1/1
f 33/1/1 32/1/1 31/1/1
f 34/1/1 32/1/1 33/1/1
f 39/2/1 36/2/1 35/2/1
f 40/1/1 37/1/1 36/1/1
f 40/2/1 36/2/1 39/2/1
f 41/2/1 38/2/1 37/2/1
f 41/1/1 37/1/1 40/1/1
f 42/2/1 38/2/1 41/2/1
f 44/2/1 41/2/1 40/2/1
f 45/2/1 41/2/1 44/2/1
f 47/2/1 44/2/1 43/2/1
f 48/2/1 44/2/1 47/2/1
f 49/2/1 46/2/1 45/2/1
f 50/2/1 46/2/1 49/2/1
f 53/2/1 52/2/1 51/2/1
f 54/2/1 52/2/1 53/2/1
f 55/1/1 54/1/1 53/1/1
f 56/1/1 54/1/1 55/1/1
f 57/2/1 56/2/1 55/2/1
f 58/2/1 56/2/1 57/2/1
f 59/1/1 58/1/1 57/1/1
f 60/1/1 58/1/1 59/1/1
f 61/2/2 62/2/2 63/2/2
f 63/2/2 62/2/2 64/2/2
f 63/1/2 64/1/2 65/1/2
f 65/1/2 64/1/2 66/1/2
f 65/2/2 66/2/2 67/2/2
f 67/2/2 66/2/2 68/2/2
f 67/1/2 68/1/2 69/1/2
f 69/1/2 68/1/2 70/1/2
f 71/1/2 72/1/2 74/1/2
f 74/1/2 72/1/2 75/1/2
f 73/1/2 74/1/2 77/1/2
f 77/1/2 74/1/2 78/1/2
f 75/1/2 76/1/2 79/1/2
f 79/1/2 76/1/2 80/1/2
f 77/3/2 78/3/2 81/3/2
f 78/1/2 79/1/2 82/1/2
f 81/3/2 78/3/2 82/3/2
f 79/2/2 80/2/2 83/2/2
f 82/1/2 79/1/2 83/1/2
f 83/2/2 80/2/2 84/2/2
f 85/1/2 86/1/2 88/1/2
f 88/1/2 86/1/2 89/1/2
f 87/3/2 88/3/2 91/3/2
f 89/2/2 90/2/2 92/2/2
f 91/3/2 88/3/2 92/3/2
f 88/2/2 89/2/2 92/2/2
f 92/2/2 90/2/2 93/2/2
f 93/2/2 90/2/2 94/2/2
f 95/1/2 96/1/2 99/1/2
f 99/1/2 96/1/2 100/1/2
f 97/1/2 98/1/2 101/1/2
f 101/1/2 98/1/2 102/1/2
f 103/2/2 104/2/2 107/2/2
f 107/2/2 104/2/2 108/2/2
f 105/1/2 106/1/2 109/1/2
f 109/1/2 106/1/2 110/1/2
f 111/2/2 112/2/2 115/2/2
f 115/2/2 112/2/2 116/2/2
f 113/2/2 114/2/2 117/2/2
f 117/2/2 114/2/2 118/2/2
f 125/1/3 120/1/3 119/1/3
f 126/2/3 121/2/3 120/2/3
f 126/1/3 120/1/3 125/1/3
f 127/2/3 121/2/3 126/2/3
f 128/2/3 123/2/3 122/2/3
f 129/2/3 123/2/3 128/2/3
f 131/1/3 127/1/3 126/1/3
f 131/1/3 125/1/3 124/1/3
f 131/1/3 126/1/3 125/1/3
f 132/1/3 127/1/3 131/1/3
f 133/2/3 130/2/3 129/2/3
f 133/1/3 127/1/3 132/1/3
f 133/2/3 129/2/3 128/2/3
f 133/2/3 128/2/3 127/2/3
f 134/2/3 130/2/3 133/2/3
f 135/3/3 132/3/3 131/3/3
f 135/1/3 131/1/3 124/1/3
f 136/1/3 133/1/3 132/1/3
f 136/3/3 132/3/3 135/3/3
f 137/3/3 134/3/3 133/3/3
f 137/1/3 133/1/3 136/1/3
f 138/2/3 130/2/3 134/2/3
f 138/3/3 134/3/3 137/3/3
f 139/2/3 130/2/3 138/2/3
f 140/1/3 137/1/3 136/1/3
f 140/1/3 136/1/3 135/1/3
f 140/1/3 139/1/3 138/1/3
f 140/1/3 138/1/3 137/1/3
f 140/1/3 135/1/3 124/1/3
f 141/1/3 139/1/3 140/1/3
f 142/1/3 139/1/3 141/1/3
f 143/1/3 139/1/3 142/1/3
f 144/1/3 142/1/3 141/1/3
f 144/2/3 143/2/3 142/2/3
f 145/2/3 143/2/3 144/2/3
f 146/2/3 143/2/3 145/2/3
f 147/1/3 140/1/3 124/1/3
f 147/3/3 141/3/3 140/3/3
f 148/1/3 144/1/3 141/1/3
f 148/3/3 141/3/3 147/3/3
f 149/3/3 145/3/3 144/3/3
f 149/1/3 144/1/3 148/1/3
f 150/1/3 146/1/3 145/1/3
f 150/3/3 145/3/3 149/3/3
f 151/1/3 149/1/3 148/1/3
f 151/1/3 147/1/3 124/1/3
f 151/1/3 150/1/3 149/1/3
f 151/1/3 148/1/3 147/1/3
f 152/1/3 150/1/3 151/1/3
f 153/1/3 146/1/3 150/1/3
f 153/1/3 150/1/3 152/1/3
f 154/1/3 146/1/3 153/1/3
f 155/1/3 146/1/3 154/1/3
f 156/3/3 152/3/3 151/3/3
f 157/1/3 153/1/3 152/1/3
f 157/3/3 152/3/3 156/3/3
f 158/1/3 153/1/3 157/1/3
f 159/3/3 154/3/3 153/3/3
f 159/1/3 153/1/3 158/1/3
f 160/2/3 155/2/3 154/2/3
f 160/3/3 154/3/3 159/3/3
f 161/1/3 151/1/3 124/1/3
f 161/3/3 156/3/3 151/3/3
f 162/1/3 158/1/3 157/1/3
f 162/3/3 156/3/3 161/3/3
f 162/1/3 157/1/3 156/1/3
f 163/2/3 160/2/3 159/2/3
f 163/1/3 158/1/3 162/1/3
f 163/2/3 159/2/3 158/2/3
f 164/1/3 162/1/3 161/1/3
f 164/1/3 161/1/3 124/1/3
f 165/2/3 163/2/3 162/2/3
f 165/1/3 162/1/3 164/1/3
f 166/2/3 163/2/3 165/2/3
f 167/2/3 160/2/3 163/2/3
f 167/2/3 163/2/3 166/2/3
f 168/3/3 166/3/3 165/3/3
f 168/1/3 164/1/3 124/1/3
f 168/3/3 165/3/3 164/3/3
f 169/3/3 166/3/3 168/3/3
f 170/2/3 160/2/3 167/2/3
f 170/1/3 167/1/3 166/1/3
f 171/2/3 160/2/3 170/2/3
f 172/2/3 155/2/3 160/2/3
f 172/2/3 160/2/3 171/2/3
f 173/1/3 169/1/3 168/1/3
f 173/1/3 168/1/3 124/1/3
f 174/3/3 166/3/3 169/3/3
f 174/1/3 169/1/3 173/1/3
f 175/1/3 171/1/3 170/1/3
f 175/3/3 166/3/3 174/3/3
f 175/1/3 170/1/3 166/1/3
f 176/3/3 172/3/3 171/3/3
f 176/1/3 171/1/3 175/1/3
f 177/2/3 155/2/3 172/2/3
f 177/3/3 172/3/3 176/3/3
f 178/1/3 173/1/3 124/1/3
f 179/1/3 173/1/3 178/1/3
f 180/2/3 176/2/3 175/2/3
f 181/2/3 176/2/3 180/2/3
f 182/2/3 155/2/3 177/2/3
f 183/2/3 155/2/3 182/2/3
f 188/2/3 185/2/3 184/2/3
f 189/1/3 186/1/3 185/1/3
f 189/2/3 185/2/3 188/2/3
f 190/2/3 187/2/3 186/2/3
f 190/1/3 186/1/3 189/1/3
f 191/2/3 187/2/3 190/2/3
f 199/1/3 193/1/3 192/1/3
f 200/2/3 194/2/3 193/2/3
f 200/1/3 193/1/3 199/1/3
f 201/2/3 194/2/3 200/2/3
f 202/2/3 194/2/3 201/2/3
f 203/2/3 196/2/3 195/2/3
f 204/2/3 196/2/3 203/2/3
f 206/1/3 200/1/3 199/1/3
f 207/1/3 200/1/3 206/1/3
f 208/1/3 202/1/3 201/1/3
f 209/1/3 202/1/3 208/1/3
f 210/1/3 198/1/3 197/1/3
f 211/1/3 198/1/3 210/1/3
f 212/2/3 207/2/3 206/2/3
f 213/2/3 207/2/3 212/2/3
f 214/2/3 205/2/3 204/2/3
f 215/2/3 211/2/3 210/2/3
f 216/2/3 211/2/3 215/2/3
f 217/2/3 209/2/3 208/2/3
f 218/2/3 209/2/3 217/2/3
f 219/1/3 216/1/3 215/1/3
f 220/1/3 216/1/3 219/1/3
f 223/1/3 218/1/3 217/1/3
f 224/1/3 218/1/3 223/1/3
f 225/2/3 205/2/3 214/2/3
f 226/1/3 213/1/3 212/1/3
f 227/1/3 213/1/3 226/1/3
f 228/2/3 227/2/3 226/2/3
f 229/2/3 227/2/3 228/2/3
f 230/2/3 224/2/3 223/2/3
f 231/2/3 224/2/3 230/2/3
f 232/1/3 231/1/3 230/1/3
f 233/1/3 231/1/3 232/1/3
f 234/1/3 222/1/3 221/1/3
f 235/1/3 229/1/3 228/1/3
f 236/1/3 229/1/3 235/1/3
f 237/2/3 233/2/3 232/2/3
f 238/2/3 233/2/3 237/2/3
f 240/2/3 205/2/3 225/2/3
f 241/1/3 234/1/3 221/1/3
f 241/1/3 235/1/3 234/1/3
f 242/1/3 235/1/3 241/1/3
f 243/1/3 239/1/3 238/1/3
f 243/1/3 238/1/3 237/1/3
f 244/1/3 239/1/3 243/1/3
f 245/2/3 205/2/3 240/2/3
f 246/2/3 205/2/3 245/2/3
f 247/1/4 248/1/4 254/1/4
f 254/1/4 248/1/4 255/1/4
f 248/2/4 249/2/4 256/2/4
f 255/1/4 248/1/4 256/1/4
f 256/2/4 249/2/4 257/2/4
f 250/2/4 251/2/4 258/2/4
f 258/2/4 251/2/4 259/2/4
f 259/2/4 260/2/4 261/2/4
f 261/2/4 260/2/4 262/2/4
f 261/1/4 262/1/4 263/1/4
f 263/1/4 262/1/4 264/1/4
f 263/2/4 264/2/4 265/2/4
f 265/2/4 264/2/4 266/2/4
f 252/1/4 253/1/4 267/1/4
f 267/1/4 253/1/4 268/1/4
f 254/1/4 255/1/4 271/1/4
f 271/1/4 255/1/4 272/1/4
f 265/1/4 266/1/4 273/1/4
f 273/1/4 266/1/4 274/1/4
f 271/3/4 272/3/4 275/3/4
f 275/3/4 272/3/4 276/3/4
f 256/1/4 257/1/4 277/1/4
f 277/1/4 257/1/4 278/1/4
f 275/1/4 276/1/4 279/1/4
f 279/1/4 276/1/4 280/1/4
f 277/2/4 278/2/4 281/2/4
f 281/2/4 278/2/4 282/2/4
f 279/3/4 280/3/4 283/3/4
f 283/3/4 280/3/4 284/3/4
f 269/1/4 270/1/4 285/1/4
f 283/1/4 284/1/4 286/1/4
f 286/1/4 284/1/4 287/1/4
f 281/1/4 282/1/4 288/1/4
f 288/1/4 282/1/4 289/1/4
f 273/2/4 274/2/4 291/2/4
f 285/1/4 286/1/4 292/1/4
f 269/1/4 285/1/4 292/1/4
f 292/1/4 286/1/4 293/1/4
f 288/2/4 289/2/4 294/2/4
f 289/2/4 290/2/4 294/2/4
f 294/2/4 290/2/4 295/2/4
f 291/2/4 274/2/4 296/2/4
f 296/2/4 274/2/4 297/2/4
f 298/2/4 299/2/4 302/2/4
f 299/1/4 300/1/4 303/1/4
f 302/2/4 299/2/4 303/2/4
f 300/2/4 301/2/4 304/2/4
f 303/1/4 300/1/4 304/1/4
f 304/2/4 301/2/4 305/2/4
f 306/1/4 307/1/4 312/1/4
f 307/2/4 308/2/4 313/2/4
f 313/2/4 308/2/4 314/2/4
f 309/2/4 310/2/4 315/2/4
f 315/2/4 310/2/4 316/2/4
f 311/1/4 312/1/4 318/1/4
f 312/1/4 307/1/4 319/1/4
f 318/1/4 312/1/4 319/1/4
f 307/2/4 313/2/4 319/2/4
f 313/1/4 314/1/4 320/1/4
f 319/2/4 313/2/4 320/2/4
f 314/2/4 315/2/4 321/2/4
f 320/1/4 314/1/4 321/1/4
f 315/1/4 316/1/4 322/1/4
f 321/2/4 315/2/4 322/2/4
f 316/2/4 317/2/4 323/2/4
f 322/1/4 316/1/4 323/1/4
f 311/1/4 318/1/4 324/1/4
f 318/2/4 319/2/4 325/2/4
f 324/1/4 318/1/4 325/1/4
f 320/2/4 321/2/4 325/2/4
f 319/2/4 320/2/4 325/2/4
f 325/2/4 321/2/4 326/2/4
f 326/2/4 321/2/4 327/2/4
f 321/1/4 322/1/4 328/1/4
f 327/2/4 321/2/4 328/2/4
f 322/2/4 323/2/4 329/2/4
f 328/1/4 322/1/4 329/1/4
f 324/2/4 325/2/4 330/2/4
f 325/2/4 326/2/4 330/2/4
f 326/1/4 327/1/4 331/1/4
f 330/2/4 326/2/4 331/2/4
f 327/2/4 328/2/4 332/2/4
f 331/1/4 327/1/4 332/1/4
f 328/2/4 329/2/4 332/2/4
f 323/2/4 317/2/4 333/2/4
f 332/2/4 329/2/4 333/2/4
f 329/2/4 323/2/4 333/2/4
f 331/1/4 332/1/4 334/1/4
f 330/1/4 331/1/4 334/1/4
f 332/1/4 333/1/4 334/1/4
f 333/2/4 317/2/4 335/2/4
f 334/1/4 333/1/4 335/1/4
f 330/1/4 334/1/4 336/1/4
f 334/2/4 335/2/4 337/2/4
f 336/1/4 334/1/4 337/1/4
f 330/1/4 336/1/4 338/1/4
f 336/2/4 337/2/4 339/2/4
f 338/1/4 336/1/4 339/1/4
f 337/2/4 335/2/4 340/2/4
f 339/2/4 337/2/4 340/2/4
f 335/2/4 317/2/4 341/2/4
f 340/2/4 335/2/4 341/2/4
f 339/2/4 340/2/4 342/2/4
f 338/2/4 339/2/4 342/2/4
f 330/1/4 338/1/4 342/1/4
f 342/2/4 340/2/4 343/2/4
f 340/1/4 341/1/4 344/1/4
f 343/2/4 340/2/4 344/2/4
f 341/2/4 317/2/4 345/2/4
f 344/1/4 341/1/4 345/1/4
f 342/1/4 343/1/4 346/1/4
f 343/2/4 344/2/4 347/2/4
f 346/1/4 343/1/4 347/1/4
f 344/2/4 345/2/4 347/2/4
f 342/1/4 346/1/4 348/1/4
f 330/1/4 342/1/4 348/1/4
f 346/2/4 347/2/4 349/2/4
f 348/1/4 346/1/4 349/1/4
f 349/2/4 347/2/4 350/2/4
f 347/2/4 345/2/4 351/2/4
f 350/2/4 347/2/4 351/2/4
f 345/2/4 317/2/4 352/2/4
f 351/2/4 345/2/4 352/2/4
f 330/1/4 348/1/4 353/1/4
f 353/1/4 348/1/4 354/1/4
f 350/1/4 351/1/4 355/1/4
f 355/1/4 351/1/4 356/1/4
f 352/2/4 317/2/4 357/2/4
f 357/2/4 317/2/4 358/2/4
f 361/2/5 360/2/5 359/2/5
f 362/2/5 360/2/5 361/2/5
f 365/1/5 364/1/5 363/1/5
f 366/1/5 364/1/5 365/1/5
f 367/1/5 364/1/5 366/1/5
f 368/1/5 364/1/5 367/1/5
f 375/1/5 370/1/5 369/1/5
f 376/2/5 371/2/5 370/2/5
f 376/1/5 370/1/5 375/1/5
f 377/1/5 374/1/5 373/1/5
f 377/2/5 371/2/5 376/2/5
f 377/1/5 372/1/5 371/1/5
f 377/1/5 373/1/5 372/1/5
f 378/1/5 374/1/5 377/1/5
f 383/1/5 380/1/5 379/1/5
f 384/1/5 380/1/5 383/1/5
f 385/1/5 380/1/5 384/1/5
f 386/1/5 380/1/5 385/1/5
f 387/1/5 382/1/5 381/1/5
f 388/1/5 382/1/5 387/1/5
f 391/1/5 390/1/5 389/1/5
f 392/1/5 390/1/5 391/1/5
f 395/1/5 394/1/5 393/1/5
f 396/1/5 394/1/5 395/1/5
f 403/1/5 398/1/5 397/1/5
f 403/1/5 402/1/5 401/1/5
f 403/1/5 401/1/5 400/1/5
f 403/1/5 400/1/5 399/1/5
f 403/1/5 399/1/5 398/1/5
f 404/1/5 402/1/5 403/1/5
f 405/1/5 402/1/5 404/1/5
f 406/1/5 402/1/5 405/1/5
f 407/1/5 402/1/5 406/1/5
f 408/1/5 402/1/5 407/1/5
f 411/2/5 410/2/5 409/2/5
f 412/2/5 410/2/5 411/2/5
f 415/1/5 414/1/5 413/1/5
f 416/1/5 414/1/5 415/1/5
f 421/1/5 418/1/5 417/1/5
f 421/1/5 420/1/5 419/1/5
f 421/1/5 419/1/5 418/1/5
f 422/1/5 420/1/5 421/1/5
f 423/1/5 420/1/5 422/1/5
f 424/1/5 420/1/5 423/1/5
f 425/1/5 420/1/5 424/1/5
f 426/1/5 420/1/5 425/1/5
f 427/1/5 420/1/5 426/1/5
f 430/2/5 429/2/5 428/2/5
f 431/2/5 429/2/5 430/2/5
f 434/2/5 433/2/5 432/2/5
f 435/2/5 433/2/5 434/2/5
f 438/2/5 437/2/5 436/2/5
f 439/2/5 437/2/5 438/2/5
f 442/2/5 441/2/5 440/2/5
f 443/2/5 441/2/5 442/2/5
f 444/1/6 445/1/6 451/1/6
f 451/1/6 445/1/6 452/1/6
f 449/1/6 450/1/6 453/1/6
f 446/1/6 447/1/6 453/1/6
f 450/1/6 451/1/6 453/1/6
f 447/1/6 448/1/6 453/1/6
f 448/1/6 449/1/6 453/1/6
f 453/1/6 451/1/6 454/1/6
f 454/1/6 451/1/6 455/1/6
f 455/1/6 451/1/6 456/1/6
f 456/1/6 451/1/6 457/1/6
f 457/1/6 451/1/6 458/1/6
f 458/1/6 459/1/6 460/1/6
f 460/1/6 459/1/6 461/1/6
f 462/1/6 463/1/6 466/1/6
f 464/1/6 465/1/6 466/1/6
f 463/1/6 464/1/6 466/1/6
f 466/1/6 465/1/6 467/1/6
f 467/1/6 465/1/6 468/1/6
f 468/1/6 465/1/6 469/1/6
f 469/1/6 465/1/6 470/1/6
f 470/1/6 465/1/6 471/1/6
f 471/1/6 465/1/6 472/1/6
f 473/2/6 474/2/6 475/2/6
f 475/2/6 474/2/6 476/2/6
f 477/2/6 478/2/6 479/2/6
f 479/2/6 478/2/6 480/2/6
f 481/2/6 482/2/6 483/2/6
f 483/2/6 482/2/6 484/2/6
f 485/1/6 486/1/6 487/1/6
f 487/1/6 486/1/6 488/1/6
f 489/2/6 490/2/6 491/2/6
f 491/2/6 490/2/6 492/2/6
f 492/2/6 493/2/6 499/2/6
f 495/1/6 496/1/6 500/1/6
f 493/1/6 494/1/6 500/1/6
f 499/2/6 493/2/6 500/2/6
f 494/1/6 495/1/6 500/1/6
f 496/2/6 497/2/6 501/2/6
f 500/1/6 496/1/6 501/1/6
f 501/2/6 497/2/6 502/2/6
f 498/2/6 499/2/6 503/2/6
f 503/2/6 499/2/6 504/2/6
f 505/2/6 506/2/6 511/2/6
f 506/1/6 507/1/6 512/1/6
f 511/2/6 506/2/6 512/2/6
f 507/2/6 508/2/6 513/2/6
f 512/1/6 507/1/6 513/1/6
f 508/1/6 509/1/6 514/1/6
f 513/2/6 508/2/6 514/2/6
f 509/2/6 510/2/6 515/2/6
f 514/1/6 509/1/6 515/1/6
f 515/2/6 510/2/6 516/2/6
f 517/2/6 518/2/6 519/2/6
f 519/2/6 518/2/6 520/2/6
