# MagicaVoxel @ Ephtracy

# group
o 

# material
mtllib identifikator.mtl
usemtl palette

# normals
vn -1 0 0
vn 1 0 0
vn 0 0 1
vn 0 0 -1
vn 0 -1 0
vn 0 1 0

# texcoords
vt 0.677734 0.5
vt 0.966797 0.5
vt 0.990234 0.5

# verts
v -0.3 1.9 -0.3
v -0.3 1.9 -0.4
v -0.3 2 -0.4
v -0.3 2 -0.5
v -0.3 2.1 -0.3
v -0.3 2.1 -0.5
v -0.2 0 -0.3
v -0.2 0 -0.4
v -0.2 1.8 -0.3
v -0.2 1.8 -0.4
v -0.2 1.8 -0.5
v -0.2 1.9 -0.3
v -0.2 1.9 -0.4
v -0.2 1.9 -0.5
v -0.2 2 -0.4
v -0.2 2 -0.5
v -0.2 2.1 -0.3
v -0.2 2.1 -0.4
v -0.2 2.2 -0.3
v -0.2 2.2 -0.4
v -0.1 2 -0.3
v -0.1 2 -0.4
v -0.1 2.1 -0.3
v -0.1 2.1 -0.4
v -0.2 2 -0.3
v -0.2 2 -0.4
v -0.2 2.1 -0.3
v -0.2 2.1 -0.4
v -0.1 0 -0.3
v -0.1 0 -0.4
v -0.1 1.8 -0.3
v -0.1 1.8 -0.4
v -0.1 1.8 -0.5
v -0.1 1.9 -0.3
v -0.1 1.9 -0.4
v -0.1 1.9 -0.5
v -0.1 2 -0.4
v -0.1 2 -0.5
v -0.1 2.1 -0.3
v -0.1 2.1 -0.4
v -0.1 2.2 -0.3
v -0.1 2.2 -0.4
v 0 1.9 -0.3
v 0 1.9 -0.4
v 0 2 -0.4
v 0 2 -0.5
v 0 2.1 -0.3
v 0 2.1 -0.5
v -0.3 1.9 -0.3
v -0.3 2.1 -0.3
v -0.2 0 -0.3
v -0.2 1.8 -0.3
v -0.2 1.9 -0.3
v -0.2 2 -0.3
v -0.2 2.1 -0.3
v -0.2 2.2 -0.3
v -0.1 0 -0.3
v -0.1 1.8 -0.3
v -0.1 1.9 -0.3
v -0.1 2 -0.3
v -0.1 2.1 -0.3
v -0.1 2.2 -0.3
v 0 1.9 -0.3
v 0 2.1 -0.3
v -0.2 2 -0.4
v -0.2 2.1 -0.4
v -0.1 2 -0.4
v -0.1 2.1 -0.4
v -0.3 1.9 -0.4
v -0.3 2 -0.4
v -0.2 0 -0.4
v -0.2 1.8 -0.4
v -0.2 1.9 -0.4
v -0.2 2 -0.4
v -0.2 2.1 -0.4
v -0.2 2.2 -0.4
v -0.1 0 -0.4
v -0.1 1.8 -0.4
v -0.1 1.9 -0.4
v -0.1 2 -0.4
v -0.1 2.1 -0.4
v -0.1 2.2 -0.4
v 0 1.9 -0.4
v 0 2 -0.4
v -0.3 2 -0.5
v -0.3 2.1 -0.5
v -0.2 1.8 -0.5
v -0.2 1.9 -0.5
v -0.2 2 -0.5
v -0.1 1.8 -0.5
v -0.1 1.9 -0.5
v -0.1 2 -0.5
v 0 2 -0.5
v 0 2.1 -0.5
v -0.2 0 -0.3
v -0.1 0 -0.3
v -0.2 0 -0.4
v -0.1 0 -0.4
v -0.2 1.8 -0.4
v -0.1 1.8 -0.4
v -0.2 1.8 -0.5
v -0.1 1.8 -0.5
v -0.3 1.9 -0.3
v -0.2 1.9 -0.3
v -0.1 1.9 -0.3
v 0 1.9 -0.3
v -0.3 1.9 -0.4
v -0.2 1.9 -0.4
v -0.1 1.9 -0.4
v 0 1.9 -0.4
v -0.3 2 -0.4
v -0.2 2 -0.4
v -0.1 2 -0.4
v 0 2 -0.4
v -0.3 2 -0.5
v -0.2 2 -0.5
v -0.1 2 -0.5
v 0 2 -0.5
v -0.2 2.1 -0.3
v -0.1 2.1 -0.3
v -0.2 2.1 -0.4
v -0.1 2.1 -0.4
v -0.2 2 -0.3
v -0.1 2 -0.3
v -0.2 2 -0.4
v -0.1 2 -0.4
v -0.3 2.1 -0.3
v -0.2 2.1 -0.3
v -0.1 2.1 -0.3
v 0 2.1 -0.3
v -0.2 2.1 -0.4
v -0.1 2.1 -0.4
v -0.3 2.1 -0.5
v 0 2.1 -0.5
v -0.2 2.2 -0.3
v -0.1 2.2 -0.3
v -0.2 2.2 -0.4
v -0.1 2.2 -0.4

# faces
f 3/2/1 2/2/1 1/2/1
f 5/2/1 3/2/1 1/2/1
f 5/2/1 4/2/1 3/2/1
f 6/2/1 4/2/1 5/2/1
f 9/1/1 8/1/1 7/1/1
f 10/1/1 8/1/1 9/1/1
f 12/2/1 10/2/1 9/2/1
f 12/2/1 11/2/1 10/2/1
f 13/2/1 11/2/1 12/2/1
f 14/2/1 11/2/1 13/2/1
f 15/3/1 14/3/1 13/3/1
f 16/3/1 14/3/1 15/3/1
f 19/2/1 18/2/1 17/2/1
f 20/2/1 18/2/1 19/2/1
f 23/2/1 22/2/1 21/2/1
f 24/2/1 22/2/1 23/2/1
f 25/2/2 26/2/2 27/2/2
f 27/2/2 26/2/2 28/2/2
f 29/1/2 30/1/2 31/1/2
f 31/1/2 30/1/2 32/1/2
f 31/2/2 32/2/2 34/2/2
f 32/2/2 33/2/2 34/2/2
f 34/2/2 33/2/2 35/2/2
f 35/2/2 33/2/2 36/2/2
f 35/3/2 36/3/2 37/3/2
f 37/3/2 36/3/2 38/3/2
f 39/2/2 40/2/2 41/2/2
f 41/2/2 40/2/2 42/2/2
f 43/2/2 44/2/2 45/2/2
f 43/2/2 45/2/2 47/2/2
f 45/2/2 46/2/2 47/2/2
f 47/2/2 46/2/2 48/2/2
f 53/2/3 50/2/3 49/2/3
f 54/2/3 50/2/3 53/2/3
f 55/2/3 50/2/3 54/2/3
f 57/1/3 52/1/3 51/1/3
f 58/2/3 53/2/3 52/2/3
f 58/1/3 52/1/3 57/1/3
f 59/3/3 54/3/3 53/3/3
f 59/2/3 53/2/3 58/2/3
f 60/3/3 54/3/3 59/3/3
f 61/2/3 56/2/3 55/2/3
f 62/2/3 56/2/3 61/2/3
f 63/2/3 60/2/3 59/2/3
f 63/2/3 61/2/3 60/2/3
f 64/2/3 61/2/3 63/2/3
f 67/2/3 66/2/3 65/2/3
f 68/2/3 66/2/3 67/2/3
f 69/2/4 70/2/4 73/2/4
f 73/2/4 70/2/4 74/2/4
f 71/1/4 72/1/4 77/1/4
f 77/1/4 72/1/4 78/1/4
f 75/2/4 76/2/4 81/2/4
f 81/2/4 76/2/4 82/2/4
f 79/2/4 80/2/4 83/2/4
f 83/2/4 80/2/4 84/2/4
f 85/2/4 86/2/4 89/2/4
f 87/2/4 88/2/4 90/2/4
f 88/3/4 89/3/4 91/3/4
f 90/2/4 88/2/4 91/2/4
f 89/2/4 86/2/4 92/2/4
f 91/3/4 89/3/4 92/3/4
f 92/2/4 86/2/4 93/2/4
f 93/2/4 86/2/4 94/2/4
f 97/1/5 96/1/5 95/1/5
f 98/1/5 96/1/5 97/1/5
f 101/2/5 100/2/5 99/2/5
f 102/2/5 100/2/5 101/2/5
f 107/2/5 104/2/5 103/2/5
f 108/2/5 104/2/5 107/2/5
f 109/2/5 106/2/5 105/2/5
f 110/2/5 106/2/5 109/2/5
f 115/2/5 112/2/5 111/2/5
f 116/2/5 112/2/5 115/2/5
f 117/2/5 114/2/5 113/2/5
f 118/2/5 114/2/5 117/2/5
f 121/2/5 120/2/5 119/2/5
f 122/2/5 120/2/5 121/2/5
f 123/3/6 124/3/6 125/3/6
f 125/3/6 124/3/6 126/3/6
f 127/2/6 128/2/6 131/2/6
f 129/2/6 130/2/6 132/2/6
f 127/2/6 131/2/6 133/2/6
f 131/2/6 132/2/6 133/2/6
f 132/2/6 130/2/6 134/2/6
f 133/2/6 132/2/6 134/2/6
f 135/2/6 136/2/6 137/2/6
f 137/2/6 136/2/6 138/2/6
